<?xml version="1.0" encoding="UTF-8" standalone="no"?>
<svg
   xmlns:dc="http://purl.org/dc/elements/1.1/"
   xmlns:cc="http://creativecommons.org/ns#"
   xmlns:rdf="http://www.w3.org/1999/02/22-rdf-syntax-ns#"
   xmlns:svg="http://www.w3.org/2000/svg"
   xmlns="http://www.w3.org/2000/svg"
   xmlns:sodipodi="http://sodipodi.sourceforge.net/DTD/sodipodi-0.dtd"
   xmlns:inkscape="http://www.inkscape.org/namespaces/inkscape"
   width="793.70081"
   height="1122.5197"
   viewBox="0 0 210 297"
   version="1.1"
   id="svg8"
   inkscape:version="1.0 (4035a4fb49, 2020-05-01)"
   sodipodi:docname="Ship.svg">
  <defs
     id="defs2">
    <filter
       inkscape:collect="always"
       style="color-interpolation-filters:sRGB"
       id="filter1759"
       x="-0.11269511"
       width="1.2253902"
       y="-0.11269511"
       height="1.2253902">
      <feGaussianBlur
         inkscape:collect="always"
         stdDeviation="9.5033205"
         id="feGaussianBlur1761" />
    </filter>
  </defs>
  <sodipodi:namedview
     id="base"
     pagecolor="#171e26"
     bordercolor="#666666"
     borderopacity="1.0"
     inkscape:pageopacity="0.01176471"
     inkscape:pageshadow="2"
     inkscape:zoom="0.31972399"
     inkscape:cx="7689.0247"
     inkscape:cy="229.90236"
     inkscape:document-units="mm"
     inkscape:current-layer="layer1"
     inkscape:document-rotation="0"
     showgrid="false"
     showborder="false"
     units="px"
     inkscape:window-width="1366"
     inkscape:window-height="709"
     inkscape:window-x="-8"
     inkscape:window-y="-8"
     inkscape:window-maximized="1"
     inkscape:lockguides="false"
     inkscape:snap-global="false"
     showguides="true"
     inkscape:guide-bbox="true" />
  <metadata
     id="metadata5">
    <rdf:RDF>
      <cc:Work
         rdf:about="">
        <dc:format>image/svg+xml</dc:format>
        <dc:type
           rdf:resource="http://purl.org/dc/dcmitype/StillImage" />
        <dc:title />
      </cc:Work>
    </rdf:RDF>
  </metadata>
  <g
     inkscape:label="Layer 1"
     inkscape:groupmode="layer"
     id="layer1">
    <path
       d="m 272.94774,-31.6606 v 10.583334 h 35.46192 c 2.93161,0 5.29166,2.360082 5.29166,5.291667 0,2.931582 -2.36005,5.291666 -5.29166,5.291666 H 272.94774 V 0.08940023 h 28.05358 c 2.93161,0 5.29167,2.36008367 5.29167,5.29166667 0,2.9315839 -2.36006,5.2916671 -5.29167,5.2916671 h -28.05358 v 10.583333 h 35.46192 c 2.93161,0 5.29166,2.360083 5.29166,5.291666 0,2.931583 -2.36005,5.291667 -5.29166,5.291667 h -35.46192 v 10.583333 h 14.82442 c 2.93161,0 5.29166,2.360083 5.29166,5.291666 0,2.931584 -2.36005,5.291667 -5.29166,5.291667 h -14.82442 v 10.583333 h 102.12916 14.81667 38.89375 c 26.38422,0 47.625,-21.240752 47.625,-47.624999 0,-26.384247 -21.24078,-47.625 -47.625,-47.625 H 389.89357 375.0769 Z"
       style="font-variation-settings:normal;opacity:0.506452;vector-effect:none;fill:#00ff00;fill-opacity:1;fill-rule:evenodd;stroke-width:0.355666;stroke-linecap:butt;stroke-linejoin:miter;stroke-miterlimit:4;stroke-dasharray:none;stroke-dashoffset:0;stroke-opacity:1;stop-color:#000000;stop-opacity:1"
       id="path873" />
    <path
       id="path898"
       d="m 270.03752,53.00612 c -2.93159,0 -5.29167,2.360084 -5.29167,5.291667 0,2.931583 2.36008,5.291667 5.29167,5.291667 h 105.03958 53.71042 c 11.39021,0 21.81974,-3.96121 29.99765,-10.583334 z"
       style="font-variation-settings:normal;opacity:0.532258;vector-effect:none;fill:#000000;fill-opacity:1;fill-rule:evenodd;stroke-width:0.352777;stroke-linecap:butt;stroke-linejoin:miter;stroke-miterlimit:4;stroke-dasharray:none;stroke-dashoffset:0;stroke-opacity:1;stop-color:#000000" />
    <path
       id="path896"
       d="m 270.03752,31.839454 c -2.93159,0 -5.29167,2.360084 -5.29167,5.291667 0,2.931584 2.36008,5.291666 5.29167,5.291666 h 198.3977 c 2.06618,-3.09777 3.77953,-6.452576 5.08083,-10.009724 -0.71903,-0.364345 -1.53103,-0.573609 -2.3952,-0.573609 z"
       style="font-variation-settings:normal;opacity:0.532258;vector-effect:none;fill:#000000;fill-opacity:1;fill-rule:evenodd;stroke-width:0.352777;stroke-linecap:butt;stroke-linejoin:miter;stroke-miterlimit:4;stroke-dasharray:none;stroke-dashoffset:0;stroke-opacity:1;stop-color:#000000" />
    <path
       id="path894"
       d="m 270.03752,10.672788 c -2.93159,0 -5.29167,2.360083 -5.29167,5.291666 0,2.931584 2.36008,5.291667 5.29167,5.291667 h 201.08333 c 2.93159,0 5.29166,-2.360083 5.29166,-5.291667 0,-2.931583 -2.36007,-5.291666 -5.29166,-5.291666 z"
       style="font-variation-settings:normal;opacity:0.532258;vector-effect:none;fill:#000000;fill-opacity:1;fill-rule:evenodd;stroke-width:0.352777;stroke-linecap:butt;stroke-linejoin:miter;stroke-miterlimit:4;stroke-dasharray:none;stroke-dashoffset:0;stroke-opacity:1;stop-color:#000000" />
    <path
       id="path892"
       d="m 270.03752,-10.493879 c -2.93159,0 -5.29167,2.3600831 -5.29167,5.2916674 0,2.931583 2.36008,5.29166597 5.29167,5.29166597 h 201.08333 c 0.86417,0 1.67617,-0.209264 2.3952,-0.573608 -1.3013,-3.55714897 -3.01465,-6.91195427 -5.08083,-10.00972537 z"
       style="font-variation-settings:normal;opacity:0.532258;vector-effect:none;fill:#000000;fill-opacity:1;fill-rule:evenodd;stroke-width:0.352777;stroke-linecap:butt;stroke-linejoin:miter;stroke-miterlimit:4;stroke-dasharray:none;stroke-dashoffset:0;stroke-opacity:1;stop-color:#000000" />
    <path
       id="path875"
       d="m 270.03752,-31.660545 c -2.93159,0 -5.29167,2.360083 -5.29167,5.291666 0,2.931584 2.36008,5.291667 5.29167,5.291667 h 188.74765 c -8.17791,-6.622124 -18.60744,-10.583333 -29.99765,-10.583333 H 375.0771 Z"
       style="font-variation-settings:normal;opacity:0.532258;vector-effect:none;fill:#000000;fill-opacity:1;fill-rule:evenodd;stroke-width:0.352777;stroke-linecap:butt;stroke-linejoin:miter;stroke-miterlimit:4;stroke-dasharray:none;stroke-dashoffset:0;stroke-opacity:1;stop-color:#000000" />
    <path
       d="m 268.17478,106.46219 h 201.08334 c 2.93159,0 5.29167,2.36008 5.29167,5.29167 0,2.93158 -2.36008,5.29166 -5.29167,5.29166 H 268.17478 c -2.93158,0 -5.29167,-2.36008 -5.29167,-5.29166 0,-2.93159 2.36009,-5.29167 5.29167,-5.29167 z"
       style="font-variation-settings:normal;opacity:0.532258;vector-effect:none;fill:#ff0000;fill-opacity:1;fill-rule:evenodd;stroke-width:0.352777;stroke-linecap:butt;stroke-linejoin:miter;stroke-miterlimit:4;stroke-dasharray:none;stroke-dashoffset:0;stroke-opacity:1;stop-color:#000000"
       id="path900" />
    <path
       id="path902"
       style="font-variation-settings:normal;opacity:0.532258;vector-effect:none;fill:#ff0000;fill-opacity:1;fill-rule:evenodd;stroke-width:0.352777;stroke-linecap:butt;stroke-linejoin:miter;stroke-miterlimit:4;stroke-dasharray:none;stroke-dashoffset:0;stroke-opacity:1;stop-color:#000000"
       d="m 328.91267,-21.077212 h 97.88516 c 2.93159,0 5.29167,2.36008 5.29167,5.29167 0,2.93158 -2.36008,5.29166 -5.29167,5.29166 h -97.88516 c -2.93158,0 -5.29167,-2.36008 -5.29167,-5.29166 0,-2.93159 2.36009,-5.29167 5.29167,-5.29167 z"
       sodipodi:nodetypes="sssssss" />
    <path
       sodipodi:nodetypes="sssssss"
       d="m 328.91267,42.422787 h 97.04158 c 2.93159,0 5.29167,2.36008 5.29167,5.29167 0,2.93158 -2.36008,5.29166 -5.29167,5.29166 h -97.04158 c -2.93158,0 -5.29167,-2.36008 -5.29167,-5.29166 0,-2.93159 2.36009,-5.29167 5.29167,-5.29167 z"
       style="font-variation-settings:normal;opacity:0.532258;vector-effect:none;fill:#ff0000;fill-opacity:1;fill-rule:evenodd;stroke-width:0.352777;stroke-linecap:butt;stroke-linejoin:miter;stroke-miterlimit:4;stroke-dasharray:none;stroke-dashoffset:0;stroke-opacity:1;stop-color:#000000"
       id="path845" />
    <circle
       style="font-variation-settings:normal;opacity:0.464516;vector-effect:none;fill:#0000ff;fill-opacity:1;fill-rule:evenodd;stroke-width:0.264583;stroke-linecap:butt;stroke-linejoin:miter;stroke-miterlimit:4;stroke-dasharray:none;stroke-dashoffset:0;stroke-opacity:1;stop-color:#000000;stop-opacity:1"
       id="path847"
       cx="428.66745"
       cy="15.964456"
       r="37.041668" />
    <path
       sodipodi:nodetypes="sssssss"
       d="m 330.52382,150.51754 h 27.9342 c 2.9316,0 5.2917,2.36008 5.2917,5.29167 0,2.93158 -2.3601,5.29166 -5.2917,5.29166 h -27.9342 c -2.9316,0 -5.2917,-2.36008 -5.2917,-5.29166 0,-2.93159 2.3601,-5.29167 5.2917,-5.29167 z"
       style="font-variation-settings:normal;opacity:0.532258;vector-effect:none;fill:#ff0000;fill-opacity:1;fill-rule:evenodd;stroke-width:0.352777;stroke-linecap:butt;stroke-linejoin:miter;stroke-miterlimit:4;stroke-dasharray:none;stroke-dashoffset:0;stroke-opacity:1;stop-color:#000000"
       id="path879" />
    <circle
       r="5.2916665"
       cy="156.0463"
       cx="376.90164"
       id="circle881"
       style="font-variation-settings:normal;opacity:1;vector-effect:none;fill:#00ff00;fill-opacity:0.505882;fill-rule:evenodd;stroke-width:0.264583;stroke-linecap:butt;stroke-linejoin:miter;stroke-miterlimit:4;stroke-dasharray:none;stroke-dashoffset:0;stroke-opacity:1;stop-color:#000000;stop-opacity:1" />
    <path
       inkscape:export-ydpi="12.440806"
       inkscape:export-xdpi="12.440806"
       style="font-variation-settings:normal;vector-effect:none;fill:#0055d4;fill-opacity:1;fill-rule:evenodd;stroke-width:0.355666;stroke-linecap:butt;stroke-linejoin:miter;stroke-miterlimit:4;stroke-dasharray:none;stroke-dashoffset:0;stroke-opacity:1;stop-color:#000000"
       d="m 959.48592,-37.948939 c -2.9316,6.7e-5 -5.2916,2.360084 -5.2916,5.291667 0,2.931584 2.36,5.291667 5.2916,5.291667 h 2.9105 1.8331 c 2.9317,0 5.2916,2.360081 5.2916,5.291667 0,2.931581 -2.3599,5.291666 -5.2916,5.291666 h -13.06227 -8.8273 c -2.9316,0 -5.2917,2.360082 -5.2917,5.291666 0,2.9315832 2.3601,5.291667 5.2917,5.291667 h 8.8273 10.52647 v 31.75 h -10.52647 -8.8273 c -2.9316,0 -5.2917,2.360083 -5.2917,5.291666 0,2.931584 2.3601,5.291667 5.2917,5.291667 h 8.8273 13.35177 c 2.9316,0 5.2917,2.360083 5.2917,5.291666 0,2.931584 -2.3601,5.291667 -5.2917,5.291667 h -2.1226 -2.9105 c -2.9316,0 -5.2916,2.360083 -5.2916,5.291667 0,2.931583 2.36,5.291666 5.2916,5.291666 h 2.9105 21.8059 14.5823 c 0.3898,0 0.7783,-0.0052 1.1658,-0.01447 0.11528,-0.0028 0.22998,-0.0078 0.34518,-0.01138 0.2636,-0.0081 0.5271,-0.01759 0.7896,-0.02997 0.1536,-0.0072 0.3067,-0.01611 0.4599,-0.02479 0.2349,-0.01331 0.4694,-0.02777 0.7033,-0.04444 0.1446,-0.01029 0.2889,-0.02151 0.4331,-0.03307 0.2382,-0.01913 0.4759,-0.04045 0.7131,-0.06305 0.1516,-0.01442 0.3031,-0.0286 0.4543,-0.04444 0.2316,-0.02429 0.4623,-0.05149 0.6929,-0.07906 0.1441,-0.0172 0.2884,-0.03319 0.4321,-0.05168 0.2599,-0.03347 0.5186,-0.07039 0.7772,-0.108003 0.1152,-0.01675 0.2312,-0.03152 0.3462,-0.04909 0,-5.29e-4 0.01,-0.0011 0.011,-0.0016 0.3508,-0.05373 0.7003,-0.111816 1.0485,-0.173114 0.1612,-0.02838 0.3214,-0.05993 0.4821,-0.08992 0.2062,-0.03849 0.4123,-0.0767 0.6175,-0.117821 0.1704,-0.03412 0.3399,-0.07053 0.5096,-0.106453 0.1903,-0.04031 0.3805,-0.08094 0.57,-0.123507 0.1754,-0.03939 0.3503,-0.08013 0.525,-0.121439 0.1856,-0.04392 0.3708,-0.08881 0.5555,-0.134877 0.1745,-0.04348 0.3488,-0.08742 0.5225,-0.132807 0.1839,-0.04808 0.3668,-0.0981 0.5498,-0.148312 0.1707,-0.04682 0.3417,-0.09294 0.5116,-0.141595 0.1748,-0.05007 0.3485,-0.103021 0.5224,-0.155027 0.1835,-0.05482 0.3674,-0.108413 0.5499,-0.165365 0,-2.11e-4 0,-2.64e-4 0,-5.29e-4 0.019,-0.006 0.038,-0.01257 0.057,-0.0186 0.5148,-0.161398 1.0252,-0.332901 1.5322,-0.51108 0.1271,-0.04469 0.2547,-0.08811 0.3814,-0.133842 0.2106,-0.07605 0.4196,-0.155181 0.6288,-0.234093 0.1178,-0.04443 0.2357,-0.08851 0.353,-0.133842 0.2183,-0.08434 0.4354,-0.170944 0.6522,-0.258384 0.1094,-0.0442 0.219,-0.08833 0.3281,-0.133323 0.2211,-0.09116 0.4415,-0.18365 0.6609,-0.278019 0.1056,-0.04542 0.2106,-0.09182 0.3158,-0.137978 0.2166,-0.09502 0.4326,-0.190746 0.6475,-0.288869 0.092,-0.04211 0.1836,-0.08548 0.2754,-0.128159 0.2328,-0.108117 0.4654,-0.2164 0.6961,-0.328144 0.8916,-0.431882 1.767,-0.891397 2.6262,-1.376146 0.01,-0.0033 0.012,-0.0065 0.017,-0.0098 0,-0.0011 0,-0.0021 0.01,-0.0031 0.2636,-0.148965 0.5254,-0.300937 0.7859,-0.454752 0.038,-0.02238 0.076,-0.04469 0.1137,-0.06718 0.2459,-0.146082 0.4899,-0.294577 0.7328,-0.444934 0.051,-0.03181 0.1027,-0.0636 0.154,-0.0956 0.2485,-0.155118 0.4957,-0.31174 0.741,-0.471289 0,-0.0021 0.01,-0.0042 0.01,-0.0062 0.01,-0.0049 0.015,-0.01003 0.023,-0.01497 1.3628,-0.887788 2.6765,-1.843857 3.9372,-2.862874 0.011,-0.0089 0.022,-0.01749 0.033,-0.02635 v 0 c 3.7249,-3.016316 6.9822,-6.584236 9.6496,-10.583333 0,-0.0031 0,-0.0062 0.01,-0.0093 0.2377,-0.356624 0.4698,-0.717174 0.6981,-1.080553 0.04,-0.0633 0.079,-0.126672 0.1189,-0.190169 0.2043,-0.32875 0.4045,-0.660172 0.601,-0.994254 0.03,-0.0514 0.061,-0.102473 0.091,-0.153995 0.6785,-1.163492 1.3094,-2.358546 1.8893,-3.582728 0.042,-0.08806 0.082,-0.176739 0.1235,-0.2651 0.143,-0.3068 0.283,-0.615169 0.4196,-0.925525 0.05,-0.113856 0.1001,-0.227772 0.1494,-0.342099 0.1318,-0.305914 0.2599,-0.613709 0.3855,-0.922941 0.043,-0.106166 0.087,-0.211772 0.1297,-0.318325 2.1708,-5.459868 3.3652,-11.421823 3.3652,-17.6733413 0,-6.2515175 -1.1944,-12.2134739 -3.3652,-17.6733394 -0.042,-0.1053566 -0.086,-0.2097305 -0.1282,-0.3147095 -0.1274,-0.3139676 -0.2578,-0.6263445 -0.3917,-0.9368936 -0.046,-0.1068711 -0.093,-0.2134185 -0.1395,-0.3198773 -0.1388,-0.3154125 -0.281,-0.6287679 -0.4263,-0.9405109 -0.041,-0.08729 -0.081,-0.174999 -0.122,-0.261999 -0.5818,-1.228185 -1.215,-2.427009 -1.896,-3.594096 -0.024,-0.0411 -0.048,-0.08197 -0.072,-0.12299 -0.2004,-0.341193 -0.4052,-0.679289 -0.6139,-1.014925 -0.039,-0.06308 -0.078,-0.126251 -0.1178,-0.189136 -0.2283,-0.363378 -0.4604,-0.723928 -0.6981,-1.080554 0,-0.0031 0,-0.0062 -0.01,-0.0093 -2.6674,-3.999098 -5.9247,-7.567018 -9.6496,-10.583333 v 0 c -0.011,-0.0089 -0.022,-0.01749 -0.033,-0.02636 -1.2607,-1.019016 -2.5744,-1.975087 -3.9372,-2.862874 -0.01,-0.005 -0.015,-0.01004 -0.023,-0.01499 0,-0.002 -0.01,-0.0037 -0.01,-0.0057 -0.2577,-0.167571 -0.5171,-0.332379 -0.7782,-0.49506 -0.029,-0.01792 -0.057,-0.03588 -0.086,-0.05374 -0.2535,-0.157138 -0.5082,-0.312093 -0.7648,-0.464571 -0.037,-0.02217 -0.075,-0.04408 -0.1122,-0.06615 -0.2605,-0.153818 -0.5223,-0.305788 -0.7859,-0.454753 0,-9.79e-4 0,-0.0021 -0.01,-0.0031 -0.01,-0.003 -0.011,-0.0058 -0.016,-0.0088 -1.1077,-0.625018 -2.2434,-1.206409 -3.4045,-1.743048 -0.056,-0.02606 -0.1124,-0.05269 -0.169,-0.07855 -0.2271,-0.103929 -0.4555,-0.205478 -0.6847,-0.305925 -0.1013,-0.04445 -0.2026,-0.08905 -0.3043,-0.13281 -0.2195,-0.09437 -0.4398,-0.186859 -0.661,-0.278019 -0.1091,-0.04499 -0.2186,-0.08912 -0.3281,-0.133324 -0.2167,-0.08744 -0.4339,-0.17405 -0.6522,-0.258381 -0.1107,-0.04281 -0.2222,-0.08409 -0.3333,-0.126093 -0.2236,-0.08444 -0.4471,-0.168941 -0.6723,-0.250113 -0.083,-0.03008 -0.1675,-0.05874 -0.2512,-0.08836 -0.5418,-0.191889 -1.0878,-0.3756 -1.6386,-0.548288 -0.019,-0.006 -0.038,-0.01262 -0.057,-0.0186 0,-2.11e-4 0,-2.64e-4 0,-5.29e-4 -0.2058,-0.06423 -0.4131,-0.125037 -0.6201,-0.18655 -0.1424,-0.04232 -0.2845,-0.08507 -0.4274,-0.126092 -0.1859,-0.05334 -0.3728,-0.104405 -0.5596,-0.155546 -0.1753,-0.04799 -0.3505,-0.09607 -0.5266,-0.14211 -0.1737,-0.04539 -0.348,-0.08933 -0.5225,-0.132808 -0.1847,-0.04607 -0.3699,-0.09096 -0.5555,-0.134877 -0.1747,-0.04131 -0.3496,-0.08204 -0.525,-0.121438 -0.1895,-0.04257 -0.3797,-0.08319 -0.57,-0.123507 -0.1697,-0.03593 -0.3391,-0.07233 -0.5095,-0.106453 -0.2053,-0.04112 -0.4114,-0.07934 -0.6176,-0.117822 -0.1607,-0.02998 -0.3208,-0.06154 -0.4821,-0.08992 -0.3482,-0.0613 -0.6977,-0.11938 -1.0485,-0.173114 0,-5.3e-4 -0.01,-0.0011 -0.011,-0.0016 -0.115,-0.01757 -0.2309,-0.03234 -0.3462,-0.04909 -0.2586,-0.03761 -0.5173,-0.07454 -0.7772,-0.108003 -0.1437,-0.01849 -0.288,-0.03447 -0.432,-0.05168 -0.2286,-0.02733 -0.4573,-0.05444 -0.6868,-0.07855 -0.1642,-0.01722 -0.3289,-0.03249 -0.4935,-0.04806 -0.2161,-0.02043 -0.4327,-0.0398 -0.6496,-0.05736 -0.1579,-0.01278 -0.316,-0.02492 -0.4744,-0.03617 -0.2303,-0.01638 -0.4612,-0.03082 -0.6924,-0.04392 -0.1533,-0.0087 -0.3064,-0.01757 -0.46,-0.02479 -0.2625,-0.01238 -0.5259,-0.02183 -0.7896,-0.02997 -0.1151,-0.0035 -0.2298,-0.0086 -0.34518,-0.01138 -0.3875,-0.0092 -0.776,-0.01447 -1.1658,-0.01447 h -13.1097 -23.2785 z"
       id="path1457"
       sodipodi:nodetypes="ssscssscsssccccssscssscssscsssssssssssssscssssssssssssccssssssssssssccsssssscsssccssssssssscsssssssssssccsscsscsssscscsssssssssssscsssssssssssscssssssssssssccs" />
    <path
       inkscape:export-ydpi="12.440806"
       inkscape:export-xdpi="12.440806"
       sodipodi:nodetypes="sssssscsscccsssssssssccssscss"
       d="m 983.46452,-27.365605 c -2.9316,0 -5.2917,2.360076 -5.2917,5.291667 0,2.931579 2.3601,5.291666 5.2917,5.291666 h 4.4375 c 2.9315,0 5.2916,2.360076 5.2916,5.291666 0,2.93158 -2.3601,5.291667 -5.2916,5.291667 h -8.7298 -47.23687 c -2.9315,0 -5.641,2.380973 -5.2916,5.29166665 v 5.29166705 5.291666 5.2916673 5.291666 c 0,2.931581 2.3601,5.291667 5.2916,5.291667 h 55.96667 c 2.9315,0 5.2916,2.360078 5.2916,5.291666 0,2.931581 -2.3601,5.291667 -5.2916,5.291667 h -5.9098 c -2.9316,0 -5.2916,2.360078 -5.2916,5.291666 0,2.931581 2.36,5.291667 5.2916,5.291667 h 13.9595 c 0.2532,0 0.5016,-0.01865 0.7451,-0.05271 0.6554,0.035 1.3116,0.05257 1.9679,0.05271 20.45748,-3e-6 37.04168,-16.58412 37.04168,-37.0416663 0,-20.4575467 -16.5842,-37.0416637 -37.04168,-37.0416657 h -0.01 c -0.4502,2.34e-4 -0.9004,0.0087 -1.3503,0.02532 -0.1687,-0.01608 -0.3396,-0.02532 -0.5127,-0.02532 z"
       style="font-variation-settings:normal;vector-effect:none;fill:#7ecefd;fill-opacity:1;fill-rule:evenodd;stroke-width:0.352777;stroke-linecap:butt;stroke-linejoin:miter;stroke-miterlimit:4;stroke-dasharray:none;stroke-dashoffset:0;stroke-opacity:1;stop-color:#000000"
       id="path1459" />
    <path
       inkscape:export-ydpi="12.440806"
       inkscape:export-xdpi="12.440806"
       sodipodi:nodetypes="csssc"
       d="m 949.17755,-32.657338 c 0,2.922481 -2.3691,5.291629 -5.2916,5.291666 -2.9225,1.9e-5 -5.2917,-2.369146 -5.2917,-5.291666 0,-2.92252 2.3692,-5.291686 5.2917,-5.291667 2.9225,3.7e-5 5.2916,2.369186 5.2916,5.291667"
       style="font-variation-settings:normal;vector-effect:none;fill:#7ecefd;fill-opacity:1;fill-rule:evenodd;stroke-width:0.264583;stroke-linecap:butt;stroke-linejoin:miter;stroke-miterlimit:4;stroke-dasharray:none;stroke-dashoffset:0;stroke-opacity:1;stop-color:#000000"
       id="path1461" />
    <path
       inkscape:export-ydpi="12.440806"
       inkscape:export-xdpi="12.440806"
       sodipodi:nodetypes="csssc"
       d="m 949.17755,52.009394 c 0,2.922481 -2.3691,5.29163 -5.2916,5.291667 -2.9225,1.9e-5 -5.2917,-2.369147 -5.2917,-5.291667 0,-2.92252 2.3692,-5.291685 5.2917,-5.291666 2.9225,3.7e-5 5.2916,2.369185 5.2916,5.291666"
       style="font-variation-settings:normal;vector-effect:none;fill:#7ecefd;fill-opacity:1;fill-rule:evenodd;stroke-width:0.264583;stroke-linecap:butt;stroke-linejoin:miter;stroke-miterlimit:4;stroke-dasharray:none;stroke-dashoffset:0;stroke-opacity:1;stop-color:#000000"
       id="path1463" />
    <path
       inkscape:export-ydpi="12.440806"
       inkscape:export-xdpi="12.440806"
       sodipodi:nodetypes="sssssss"
       d="m 913.38865,-37.949005 h 14.5946 c 2.9316,0 5.2917,2.36008 5.2917,5.29167 0,2.93158 -2.3601,5.29166 -5.2917,5.29166 h -14.5946 c -2.9316,0 -5.29173,-2.36008 -5.29173,-5.29166 0,-2.93159 2.36013,-5.29167 5.29173,-5.29167 z"
       style="font-variation-settings:normal;vector-effect:none;fill:#0055d4;fill-opacity:1;fill-rule:evenodd;stroke-width:0.352777;stroke-linecap:butt;stroke-linejoin:miter;stroke-miterlimit:4;stroke-dasharray:none;stroke-dashoffset:0;stroke-opacity:1;stop-color:#000000"
       id="path1465" />
    <path
       inkscape:export-ydpi="12.440806"
       inkscape:export-xdpi="12.440806"
       sodipodi:nodetypes="sssssss"
       d="m 913.38865,46.717731 h 14.5946 c 2.9316,0 5.2917,2.36008 5.2917,5.29167 0,2.93158 -2.3601,5.29166 -5.2917,5.29166 h -14.5946 c -2.9316,0 -5.29173,-2.36008 -5.29173,-5.29166 0,-2.93159 2.36013,-5.29167 5.29173,-5.29167 z"
       style="font-variation-settings:normal;vector-effect:none;fill:#0055d4;fill-opacity:1;fill-rule:evenodd;stroke-width:0.352777;stroke-linecap:butt;stroke-linejoin:miter;stroke-miterlimit:4;stroke-dasharray:none;stroke-dashoffset:0;stroke-opacity:1;stop-color:#000000"
       id="path1467" />
    <path
       inkscape:export-ydpi="12.440806"
       inkscape:export-xdpi="12.440806"
       d="m 1062.2463,9.6760277 a 5.2916665,5.2916665 0 0 1 -5.2916,5.2916663 5.2916665,5.2916665 0 0 1 -5.2917,-5.2916663 5.2916665,5.2916665 0 0 1 5.2917,-5.291667 5.2916665,5.2916665 0 0 1 5.2916,5.291667"
       style="font-variation-settings:normal;vector-effect:none;fill:#7ecefd;fill-opacity:1;fill-rule:evenodd;stroke-width:0.264583;stroke-linecap:butt;stroke-linejoin:miter;stroke-miterlimit:4;stroke-dasharray:none;stroke-dashoffset:0;stroke-opacity:1;stop-color:#000000"
       id="path1469" />
    <circle
       inkscape:export-ydpi="12.440806"
       inkscape:export-xdpi="12.440806"
       cx="981.15979"
       cy="9.6760616"
       r="101.19325"
       id="circle1471"
       style="font-variation-settings:normal;opacity:1;vector-effect:none;fill:none;fill-opacity:1;fill-rule:evenodd;stroke:#ffffff;stroke-width:5.29167;stroke-linecap:butt;stroke-linejoin:miter;stroke-miterlimit:4;stroke-dasharray:none;stroke-dashoffset:0;stroke-opacity:1;stop-color:#000000;stop-opacity:1" />
    <path
       inkscape:export-ydpi="12.440806"
       inkscape:export-xdpi="12.440806"
       sodipodi:nodetypes="ssscssscsssccccssscssscssscsssssssssssssscssssssssssssccssssssssssssccsssssscsssccssssssssscsssssssssssccsscsscsssscscsssssssssssscsssssssssssscssssssssssssccs"
       id="path1555"
       d="m 1326.6712,-37.948939 c -2.9316,8.4e-5 -5.2916,2.360084 -5.2916,5.291667 0,2.931584 2.36,5.291667 5.2916,5.291667 h 2.9105 1.8331 c 2.9317,0 5.2916,2.360081 5.2916,5.291667 0,2.931581 -2.3599,5.291666 -5.2916,5.291666 h -13.0623 -8.8273 c -2.9316,0 -5.2917,2.360082 -5.2917,5.291666 0,2.9315832 2.3601,5.291667 5.2917,5.291667 h 8.8273 10.5265 v 31.75 h -10.5265 -8.8273 c -2.9316,0 -5.2917,2.360083 -5.2917,5.291666 0,2.931584 2.3601,5.291667 5.2917,5.291667 h 8.8273 13.3518 c 2.9316,0 5.2917,2.360083 5.2917,5.291666 0,2.931584 -2.3601,5.291667 -5.2917,5.291667 h -2.1226 -2.9105 c -2.9316,0 -5.2916,2.360083 -5.2916,5.291667 0,2.931583 2.36,5.291666 5.2916,5.291666 h 2.9105 l 14.6192,0 h 14.5823 c 0.3898,0 0.7783,-0.0052 1.1658,-0.01447 0.1153,-0.0028 0.23,-0.0078 0.3452,-0.01138 0.2636,-0.0081 0.5271,-0.01759 0.7896,-0.02997 0.1536,-0.0072 0.3067,-0.01611 0.4599,-0.02479 0.2349,-0.01331 0.4694,-0.02777 0.7033,-0.04444 0.1446,-0.01029 0.2889,-0.02151 0.4331,-0.03307 0.2382,-0.01913 0.4759,-0.04045 0.7131,-0.06305 0.1516,-0.01442 0.3031,-0.0286 0.4543,-0.04444 0.2316,-0.02429 0.4623,-0.05149 0.6929,-0.07906 0.1441,-0.0172 0.2884,-0.03319 0.4321,-0.05168 0.2599,-0.03347 0.5186,-0.07039 0.7772,-0.108003 0.1152,-0.01675 0.2312,-0.03152 0.3462,-0.04909 0,-5.29e-4 0.01,-0.0011 0.011,-0.0016 0.3508,-0.05373 0.7003,-0.111816 1.0485,-0.173114 0.1612,-0.02838 0.3214,-0.05993 0.4821,-0.08992 0.2062,-0.03849 0.4123,-0.0767 0.6175,-0.117821 0.1704,-0.03412 0.3399,-0.07053 0.5096,-0.106453 0.1903,-0.04031 0.3805,-0.08094 0.57,-0.123507 0.1754,-0.03939 0.3503,-0.08013 0.525,-0.121439 0.1856,-0.04392 0.3708,-0.08881 0.5555,-0.134877 0.1745,-0.04348 0.3488,-0.08742 0.5225,-0.132807 0.1839,-0.04808 0.3668,-0.0981 0.5498,-0.148312 0.1707,-0.04682 0.3417,-0.09294 0.5116,-0.141595 0.1748,-0.05007 0.3485,-0.103021 0.5224,-0.155027 0.1835,-0.05482 0.3674,-0.108413 0.5499,-0.165365 v -5.29e-4 c 0.019,-0.006 0.038,-0.01257 0.057,-0.0186 0.5148,-0.161398 1.0252,-0.332901 1.5322,-0.51108 0.1271,-0.04469 0.2547,-0.08811 0.3814,-0.133842 0.2106,-0.07605 0.4196,-0.155181 0.6288,-0.234093 0.1178,-0.04443 0.2357,-0.08851 0.353,-0.133842 0.2183,-0.08434 0.4354,-0.170944 0.6522,-0.258384 0.1094,-0.0442 0.219,-0.08833 0.3281,-0.133323 0.2211,-0.09116 0.4415,-0.18365 0.6609,-0.278019 0.1056,-0.04542 0.2106,-0.09182 0.3158,-0.137978 0.2166,-0.09502 0.4326,-0.190746 0.6475,-0.288869 0.092,-0.04211 0.1836,-0.08548 0.2754,-0.128159 0.2328,-0.108117 0.4654,-0.2164 0.6961,-0.328144 0.8916,-0.431882 1.767,-0.891397 2.6262,-1.376146 0.01,-0.0033 0.012,-0.0065 0.017,-0.0098 0,-0.0011 0,-0.0021 0.01,-0.0031 0.2636,-0.148965 0.5254,-0.300937 0.7859,-0.454752 0.038,-0.02238 0.076,-0.04469 0.1137,-0.06718 0.2459,-0.146082 0.4899,-0.294577 0.7328,-0.444934 0.051,-0.03181 0.1027,-0.0636 0.154,-0.0956 0.2485,-0.155118 0.4957,-0.31174 0.741,-0.471289 0,-0.0021 0.01,-0.0042 0.01,-0.0062 0.01,-0.0049 0.015,-0.01003 0.023,-0.01497 1.3628,-0.887788 2.6765,-1.843857 3.9372,-2.862874 0.011,-0.0089 0.022,-0.01749 0.033,-0.02635 v 0 c 3.7249,-3.016316 6.9822,-6.584236 9.6496,-10.583333 0,-0.0031 0,-0.0062 0.01,-0.0093 0.2377,-0.356624 0.4698,-0.717174 0.6981,-1.080553 0.04,-0.0633 0.079,-0.126672 0.1189,-0.190169 0.2043,-0.32875 0.4045,-0.660172 0.601,-0.994254 0.03,-0.0514 0.061,-0.102473 0.091,-0.153995 0.6785,-1.163492 1.3094,-2.358546 1.8893,-3.582728 0.042,-0.08806 0.082,-0.176739 0.1235,-0.2651 0.143,-0.3068 0.283,-0.615169 0.4196,-0.925525 0.05,-0.113856 0.1001,-0.227772 0.1494,-0.342099 0.1318,-0.305914 0.2599,-0.613709 0.3855,-0.922941 0.043,-0.106166 0.087,-0.211772 0.1297,-0.318325 2.1708,-5.459868 3.3652,-11.421823 3.3652,-17.6733413 0,-6.2515175 -1.1944,-12.2134739 -3.3652,-17.6733394 -0.042,-0.1053566 -0.086,-0.2097305 -0.1282,-0.3147095 -0.1274,-0.3139676 -0.2578,-0.6263445 -0.3917,-0.9368936 -0.046,-0.1068711 -0.093,-0.2134185 -0.1395,-0.3198773 -0.1388,-0.3154125 -0.281,-0.6287679 -0.4263,-0.9405109 -0.041,-0.08729 -0.081,-0.174999 -0.122,-0.261999 -0.5818,-1.228185 -1.215,-2.427009 -1.896,-3.594096 -0.024,-0.0411 -0.048,-0.08197 -0.072,-0.12299 -0.2004,-0.341193 -0.4052,-0.679289 -0.6139,-1.014925 -0.039,-0.06308 -0.078,-0.126251 -0.1178,-0.189136 -0.2283,-0.363378 -0.4604,-0.723928 -0.6981,-1.080554 0,-0.0031 0,-0.0062 -0.01,-0.0093 -2.6674,-3.999098 -5.9247,-7.567018 -9.6496,-10.583333 v 0 c -0.011,-0.0089 -0.022,-0.01749 -0.033,-0.02636 -1.2607,-1.019016 -2.5744,-1.975087 -3.9372,-2.862874 -0.01,-0.005 -0.015,-0.01004 -0.023,-0.01499 0,-0.002 -0.01,-0.0037 -0.01,-0.0057 -0.2577,-0.167571 -0.5171,-0.332379 -0.7782,-0.49506 -0.029,-0.01792 -0.057,-0.03588 -0.086,-0.05374 -0.2535,-0.157138 -0.5082,-0.312093 -0.7648,-0.464571 -0.037,-0.02217 -0.075,-0.04408 -0.1122,-0.06615 -0.2605,-0.153818 -0.5223,-0.305788 -0.7859,-0.454753 0,-9.79e-4 0,-0.0021 -0.01,-0.0031 -0.01,-0.003 -0.011,-0.0058 -0.016,-0.0088 -1.1077,-0.625018 -2.2434,-1.206409 -3.4045,-1.743048 -0.056,-0.02606 -0.1124,-0.05269 -0.169,-0.07855 -0.2271,-0.103929 -0.4555,-0.205478 -0.6847,-0.305925 -0.1013,-0.04445 -0.2026,-0.08905 -0.3043,-0.13281 -0.2195,-0.09437 -0.4398,-0.186859 -0.661,-0.278019 -0.1091,-0.04499 -0.2186,-0.08912 -0.3281,-0.133324 -0.2167,-0.08744 -0.4339,-0.17405 -0.6522,-0.258381 -0.1107,-0.04281 -0.2222,-0.08409 -0.3333,-0.126093 -0.2236,-0.08444 -0.4471,-0.168941 -0.6723,-0.250113 -0.083,-0.03008 -0.1675,-0.05874 -0.2512,-0.08836 -0.5418,-0.191889 -1.0878,-0.3756 -1.6386,-0.548288 -0.019,-0.006 -0.038,-0.01262 -0.057,-0.0186 v -5.29e-4 c -0.2058,-0.06423 -0.4131,-0.125037 -0.6201,-0.18655 -0.1424,-0.04232 -0.2845,-0.08507 -0.4274,-0.126092 -0.1859,-0.05334 -0.3728,-0.104405 -0.5596,-0.155546 -0.1753,-0.04799 -0.3505,-0.09607 -0.5266,-0.14211 -0.1737,-0.04539 -0.348,-0.08933 -0.5225,-0.132808 -0.1847,-0.04607 -0.3699,-0.09096 -0.5555,-0.134877 -0.1747,-0.04131 -0.3496,-0.08204 -0.525,-0.121438 -0.1895,-0.04257 -0.3797,-0.08319 -0.57,-0.123507 -0.1697,-0.03593 -0.3391,-0.07233 -0.5095,-0.106453 -0.2053,-0.04112 -0.4114,-0.07934 -0.6176,-0.117822 -0.1607,-0.02998 -0.3208,-0.06154 -0.4821,-0.08992 -0.3482,-0.0613 -0.6977,-0.11938 -1.0485,-0.173114 0,-5.3e-4 -0.01,-0.0011 -0.011,-0.0016 -0.115,-0.01757 -0.2309,-0.03234 -0.3462,-0.04909 -0.2586,-0.03761 -0.5173,-0.07454 -0.7772,-0.108003 -0.1437,-0.01849 -0.288,-0.03447 -0.432,-0.05168 -0.2286,-0.02733 -0.4573,-0.05444 -0.6868,-0.07855 -0.1642,-0.01722 -0.3289,-0.03249 -0.4935,-0.04806 -0.2161,-0.02043 -0.4327,-0.0398 -0.6496,-0.05736 -0.1579,-0.01278 -0.316,-0.02492 -0.4744,-0.03617 -0.2303,-0.01638 -0.4612,-0.03082 -0.6924,-0.04392 -0.1533,-0.0087 -0.3064,-0.01757 -0.46,-0.02479 -0.2625,-0.01238 -0.5259,-0.02183 -0.7896,-0.02997 -0.1151,-0.0035 -0.2298,-0.0086 -0.3452,-0.01138 -0.3875,-0.0092 -0.776,-0.01447 -1.1658,-0.01447 h -13.1097 l -16.0918,0 z"
       style="font-variation-settings:normal;vector-effect:none;fill:#0055d4;fill-opacity:1;fill-rule:evenodd;stroke-width:0.355666;stroke-linecap:butt;stroke-linejoin:miter;stroke-miterlimit:4;stroke-dasharray:none;stroke-dashoffset:0;stroke-opacity:1;stop-color:#000000" />
    <path
       inkscape:export-ydpi="12.440806"
       inkscape:export-xdpi="12.440806"
       id="path1557"
       style="font-variation-settings:normal;vector-effect:none;fill:#7ecefd;fill-opacity:1;fill-rule:evenodd;stroke-width:0.352777;stroke-linecap:butt;stroke-linejoin:miter;stroke-miterlimit:4;stroke-dasharray:none;stroke-dashoffset:0;stroke-opacity:1;stop-color:#000000"
       d="m 1343.4631,-27.365605 c -2.9316,0 -5.2917,2.360076 -5.2917,5.291667 0,2.931579 2.3601,5.291666 5.2917,5.291666 h 4.4375 c 2.9315,0 5.2916,2.360076 5.2916,5.291666 0,2.93158 -2.3601,5.291667 -5.2916,5.291667 h -8.7298 -47.2369 c -2.9315,0 -5.641,2.380973 -5.2916,5.29166665 v 5.29166705 5.291666 5.2916673 5.291666 c 0,2.931581 2.3601,5.291667 5.2916,5.291667 h 55.9667 c 2.9315,0 5.2916,2.360078 5.2916,5.291666 0,2.931581 -2.3601,5.291667 -5.2916,5.291667 h -4.4375 c -2.9316,0 -5.2917,2.360078 -5.2917,5.291666 0,2.931581 2.3601,5.291667 5.2917,5.291667 h 12.4872 c 0.2532,0 0.5016,-0.01865 0.7451,-0.05271 0.6554,0.035 1.3116,0.05257 1.9679,0.05271 20.4575,-3e-6 37.0417,-16.58412 37.0417,-37.0416663 0,-20.4575467 -16.5842,-37.0416637 -37.0417,-37.0416657 h -0.01 c -0.4502,2.34e-4 -0.9004,0.0087 -1.3503,0.02532 -0.1687,-0.01608 -0.3396,-0.02532 -0.5127,-0.02532 z"
       sodipodi:nodetypes="sssssscsscccsssssssssccssscss" />
    <path
       inkscape:export-ydpi="12.440806"
       inkscape:export-xdpi="12.440806"
       id="path1559"
       style="font-variation-settings:normal;vector-effect:none;fill:#7ecefd;fill-opacity:1;fill-rule:evenodd;stroke-width:0.264583;stroke-linecap:butt;stroke-linejoin:miter;stroke-miterlimit:4;stroke-dasharray:none;stroke-dashoffset:0;stroke-opacity:1;stop-color:#000000"
       d="m 1319.5389,-32.657338 c 0,2.922481 -2.3691,5.291629 -5.2916,5.291666 -2.9225,1.9e-5 -5.2917,-2.369146 -5.2917,-5.291666 0,-2.92252 2.3692,-5.291686 5.2917,-5.291667 2.9225,3.7e-5 5.2916,2.369186 5.2916,5.291667"
       sodipodi:nodetypes="csssc" />
    <path
       inkscape:export-ydpi="12.440806"
       inkscape:export-xdpi="12.440806"
       id="path1561"
       style="font-variation-settings:normal;vector-effect:none;fill:#7ecefd;fill-opacity:1;fill-rule:evenodd;stroke-width:0.264583;stroke-linecap:butt;stroke-linejoin:miter;stroke-miterlimit:4;stroke-dasharray:none;stroke-dashoffset:0;stroke-opacity:1;stop-color:#000000"
       d="m 1319.5389,52.009394 c 0,2.922481 -2.3691,5.29163 -5.2916,5.291667 -2.9225,1.9e-5 -5.2917,-2.369147 -5.2917,-5.291667 0,-2.92252 2.3692,-5.291685 5.2917,-5.291666 2.9225,3.7e-5 5.2916,2.369185 5.2916,5.291666"
       sodipodi:nodetypes="csssc" />
    <path
       inkscape:export-ydpi="12.440806"
       inkscape:export-xdpi="12.440806"
       id="path1563"
       style="font-variation-settings:normal;vector-effect:none;fill:#0055d4;fill-opacity:1;fill-rule:evenodd;stroke-width:0.352777;stroke-linecap:butt;stroke-linejoin:miter;stroke-miterlimit:4;stroke-dasharray:none;stroke-dashoffset:0;stroke-opacity:1;stop-color:#000000"
       d="m 1287.8789,-37.949005 h 14.5946 c 2.9316,0 5.2917,2.36008 5.2917,5.29167 0,2.93158 -2.3601,5.29166 -5.2917,5.29166 h -14.5946 c -2.9316,0 -5.2917,-2.36008 -5.2917,-5.29166 0,-2.93159 2.3601,-5.29167 5.2917,-5.29167 z"
       sodipodi:nodetypes="sssssss" />
    <path
       inkscape:export-ydpi="12.440806"
       inkscape:export-xdpi="12.440806"
       id="path1565"
       style="font-variation-settings:normal;vector-effect:none;fill:#0055d4;fill-opacity:1;fill-rule:evenodd;stroke-width:0.352777;stroke-linecap:butt;stroke-linejoin:miter;stroke-miterlimit:4;stroke-dasharray:none;stroke-dashoffset:0;stroke-opacity:1;stop-color:#000000"
       d="m 1287.8789,46.717731 h 14.5946 c 2.9316,0 5.2917,2.36008 5.2917,5.29167 0,2.93158 -2.3601,5.29166 -5.2917,5.29166 h -14.5946 c -3.6797,0 -5.2917,-2.36008 -5.2917,-5.29166 0,-2.93159 2.3601,-5.29167 5.2917,-5.29167 z"
       sodipodi:nodetypes="sssssss" />
    <path
       inkscape:export-ydpi="12.440806"
       inkscape:export-xdpi="12.440806"
       id="path1567"
       style="font-variation-settings:normal;vector-effect:none;fill:#7ecefd;fill-opacity:1;fill-rule:evenodd;stroke-width:0.264583;stroke-linecap:butt;stroke-linejoin:miter;stroke-miterlimit:4;stroke-dasharray:none;stroke-dashoffset:0;stroke-opacity:1;stop-color:#000000"
       d="m 1422.2449,9.6760277 a 5.2916665,5.2916665 0 0 1 -5.2916,5.2916663 5.2916665,5.2916665 0 0 1 -5.2917,-5.2916663 5.2916665,5.2916665 0 0 1 5.2917,-5.291667 5.2916665,5.2916665 0 0 1 5.2916,5.291667" />
    <circle
       style="font-variation-settings:normal;opacity:1;vector-effect:none;fill:none;fill-opacity:1;fill-rule:evenodd;stroke:#ffffff;stroke-width:5.29167;stroke-linecap:butt;stroke-linejoin:miter;stroke-miterlimit:4;stroke-dasharray:none;stroke-dashoffset:0;stroke-opacity:1;stop-color:#000000;stop-opacity:1"
       id="circle1569"
       r="88.488892"
       cy="9.6760616"
       cx="1341.1583"
       inkscape:export-xdpi="12.440806"
       inkscape:export-ydpi="12.440806" />
    <circle
       inkscape:export-ydpi="12.440806"
       inkscape:export-xdpi="12.440806"
       style="font-variation-settings:normal;opacity:1;vector-effect:none;fill:none;fill-opacity:1;fill-rule:evenodd;stroke:#ffffff;stroke-width:5.29167;stroke-linecap:butt;stroke-linejoin:miter;stroke-miterlimit:4;stroke-dasharray:none;stroke-dashoffset:0;stroke-opacity:1;stop-color:#000000;stop-opacity:1;filter:url(#filter1759)"
       id="circle1573"
       r="101.19325"
       cy="9.6760616"
       cx="981.15979" />
    <circle
       style="font-variation-settings:normal;opacity:1;vector-effect:none;fill:none;fill-opacity:1;fill-rule:evenodd;stroke:#ffffff;stroke-width:5.29167;stroke-linecap:butt;stroke-linejoin:miter;stroke-miterlimit:4;stroke-dasharray:none;stroke-dashoffset:0;stroke-opacity:1;stop-color:#000000;stop-opacity:1"
       id="circle1763"
       r="125.33155"
       cy="9.6760616"
       cx="981.15979"
       inkscape:export-xdpi="12.440806"
       inkscape:export-ydpi="12.440806" />
    <path
       inkscape:export-ydpi="12.440806"
       inkscape:export-xdpi="12.440806"
       style="font-variation-settings:normal;vector-effect:none;fill:#0055d4;fill-opacity:1;fill-rule:evenodd;stroke-width:0.355666;stroke-linecap:butt;stroke-linejoin:miter;stroke-miterlimit:4;stroke-dasharray:none;stroke-dashoffset:0;stroke-opacity:1;stop-color:#000000"
       d="m 1652.7426,-37.948939 c -2.9316,8.4e-5 -5.2916,2.360084 -5.2916,5.291667 0,2.931584 2.36,5.291667 5.2916,5.291667 h 2.9105 1.8331 c 2.9317,0 5.2916,2.360081 5.2916,5.291667 0,2.931581 -2.3599,5.291666 -5.2916,5.291666 h -13.0623 -8.8273 c -2.9316,0 -5.2917,2.360082 -5.2917,5.291666 0,2.9315832 2.3601,5.291667 5.2917,5.291667 h 8.8273 10.5265 v 31.75 h -10.5265 -8.8273 c -2.9316,0 -5.2917,2.360083 -5.2917,5.291666 0,2.931584 2.3601,5.291667 5.2917,5.291667 h 8.8273 13.3518 c 2.9316,0 5.2917,2.360083 5.2917,5.291666 0,2.931584 -2.3601,5.291667 -5.2917,5.291667 h -2.1226 -2.9105 c -2.9316,0 -5.2916,2.360083 -5.2916,5.291667 0,2.931583 2.36,5.291666 5.2916,5.291666 h 2.9105 14.6192 14.5823 c 0.3898,0 0.7783,-0.0052 1.1658,-0.01447 0.1153,-0.0028 0.23,-0.0078 0.3452,-0.01138 0.2636,-0.0081 0.5271,-0.01759 0.7896,-0.02997 0.1536,-0.0072 0.3067,-0.01611 0.4599,-0.02479 0.2349,-0.01331 0.4694,-0.02777 0.7033,-0.04444 0.1446,-0.01029 0.2889,-0.02151 0.4331,-0.03307 0.2382,-0.01913 0.4759,-0.04045 0.7131,-0.06305 0.1516,-0.01442 0.3031,-0.0286 0.4543,-0.04444 0.2316,-0.02429 0.4623,-0.05149 0.6929,-0.07906 0.1441,-0.0172 0.2884,-0.03319 0.4321,-0.05168 0.2599,-0.03347 0.5186,-0.07039 0.7772,-0.108003 0.1152,-0.01675 0.2312,-0.03152 0.3462,-0.04909 0,-5.29e-4 0.01,-0.0011 0.011,-0.0016 0.3508,-0.05373 0.7003,-0.111816 1.0485,-0.173114 0.1612,-0.02838 0.3214,-0.05993 0.4821,-0.08992 0.2062,-0.03849 0.4123,-0.0767 0.6175,-0.117821 0.1704,-0.03412 0.3399,-0.07053 0.5096,-0.106453 0.1903,-0.04031 0.3805,-0.08094 0.57,-0.123507 0.1754,-0.03939 0.3503,-0.08013 0.525,-0.121439 0.1856,-0.04392 0.3708,-0.08881 0.5555,-0.134877 0.1745,-0.04348 0.3488,-0.08742 0.5225,-0.132807 0.1839,-0.04808 0.3668,-0.0981 0.5498,-0.148312 0.1707,-0.04682 0.3417,-0.09294 0.5116,-0.141595 0.1748,-0.05007 0.3485,-0.103021 0.5224,-0.155027 0.1835,-0.05482 0.3674,-0.108413 0.5499,-0.165365 v -5.29e-4 c 0.019,-0.006 0.038,-0.01257 0.057,-0.0186 0.5148,-0.161398 1.0252,-0.332901 1.5322,-0.51108 0.1271,-0.04469 0.2547,-0.08811 0.3814,-0.133842 0.2106,-0.07605 0.4196,-0.155181 0.6288,-0.234093 0.1178,-0.04443 0.2357,-0.08851 0.353,-0.133842 0.2183,-0.08434 0.4354,-0.170944 0.6522,-0.258384 0.1094,-0.0442 0.219,-0.08833 0.3281,-0.133323 0.2211,-0.09116 0.4415,-0.18365 0.6609,-0.278019 0.1056,-0.04542 0.2106,-0.09182 0.3158,-0.137978 0.2166,-0.09502 0.4326,-0.190746 0.6475,-0.288869 0.092,-0.04211 0.1836,-0.08548 0.2754,-0.128159 0.2328,-0.108117 0.4654,-0.2164 0.6961,-0.328144 0.8916,-0.431882 1.767,-0.891397 2.6262,-1.376146 0.01,-0.0033 0.012,-0.0065 0.017,-0.0098 0,-0.0011 0,-0.0021 0.01,-0.0031 0.2636,-0.148965 0.5254,-0.300937 0.7859,-0.454752 0.038,-0.02238 0.076,-0.04469 0.1137,-0.06718 0.2459,-0.146082 0.4899,-0.294577 0.7328,-0.444934 0.051,-0.03181 0.1027,-0.0636 0.154,-0.0956 0.2485,-0.155118 0.4957,-0.31174 0.741,-0.471289 0,-0.0021 0.01,-0.0042 0.01,-0.0062 0.01,-0.0049 0.015,-0.01003 0.023,-0.01497 1.3628,-0.887788 2.6765,-1.843857 3.9372,-2.862874 0.011,-0.0089 0.022,-0.01749 0.033,-0.02635 v 0 c 3.7249,-3.016316 6.9822,-6.584236 9.6496,-10.583333 0,-0.0031 0,-0.0062 0.01,-0.0093 0.2377,-0.356624 0.4698,-0.717174 0.6981,-1.080553 0.04,-0.0633 0.079,-0.126672 0.1189,-0.190169 0.2043,-0.32875 0.4045,-0.660172 0.601,-0.994254 0.03,-0.0514 0.061,-0.102473 0.091,-0.153995 0.6785,-1.163492 1.3094,-2.358546 1.8893,-3.582728 0.042,-0.08806 0.082,-0.176739 0.1235,-0.2651 0.143,-0.3068 0.283,-0.615169 0.4196,-0.925525 0.05,-0.113856 0.1001,-0.227772 0.1494,-0.342099 0.1318,-0.305914 0.2599,-0.613709 0.3855,-0.922941 0.043,-0.106166 0.087,-0.211772 0.1297,-0.318325 2.1708,-5.459868 3.3652,-11.421823 3.3652,-17.6733413 0,-6.2515175 -1.1944,-12.2134739 -3.3652,-17.6733394 -0.042,-0.1053566 -0.086,-0.2097305 -0.1282,-0.3147095 -0.1274,-0.3139676 -0.2578,-0.6263445 -0.3917,-0.9368936 -0.046,-0.1068711 -0.093,-0.2134185 -0.1395,-0.3198773 -0.1388,-0.3154125 -0.281,-0.6287679 -0.4263,-0.9405109 -0.041,-0.08729 -0.081,-0.174999 -0.122,-0.261999 -0.5818,-1.228185 -1.215,-2.427009 -1.896,-3.594096 -0.024,-0.0411 -0.048,-0.08197 -0.072,-0.12299 -0.2004,-0.341193 -0.4052,-0.679289 -0.6139,-1.014925 -0.039,-0.06308 -0.078,-0.126251 -0.1178,-0.189136 -0.2283,-0.363378 -0.4604,-0.723928 -0.6981,-1.080554 0,-0.0031 0,-0.0062 -0.01,-0.0093 -2.6674,-3.999098 -5.9247,-7.567018 -9.6496,-10.583333 v 0 c -0.011,-0.0089 -0.022,-0.01749 -0.033,-0.02636 -1.2607,-1.019016 -2.5744,-1.975087 -3.9372,-2.862874 -0.01,-0.005 -0.015,-0.01004 -0.023,-0.01499 0,-0.002 -0.01,-0.0037 -0.01,-0.0057 -0.2577,-0.167571 -0.5171,-0.332379 -0.7782,-0.49506 -0.029,-0.01792 -0.057,-0.03588 -0.086,-0.05374 -0.2535,-0.157138 -0.5082,-0.312093 -0.7648,-0.464571 -0.037,-0.02217 -0.075,-0.04408 -0.1122,-0.06615 -0.2605,-0.153818 -0.5223,-0.305788 -0.7859,-0.454753 0,-9.79e-4 0,-0.0021 -0.01,-0.0031 -0.01,-0.003 -0.011,-0.0058 -0.016,-0.0088 -1.1077,-0.625018 -2.2434,-1.206409 -3.4045,-1.743048 -0.056,-0.02606 -0.1124,-0.05269 -0.169,-0.07855 -0.2271,-0.103929 -0.4555,-0.205478 -0.6847,-0.305925 -0.1013,-0.04445 -0.2026,-0.08905 -0.3043,-0.13281 -0.2195,-0.09437 -0.4398,-0.186859 -0.661,-0.278019 -0.1091,-0.04499 -0.2186,-0.08912 -0.3281,-0.133324 -0.2167,-0.08744 -0.4339,-0.17405 -0.6522,-0.258381 -0.1107,-0.04281 -0.2222,-0.08409 -0.3333,-0.126093 -0.2236,-0.08444 -0.4471,-0.168941 -0.6723,-0.250113 -0.083,-0.03008 -0.1675,-0.05874 -0.2512,-0.08836 -0.5418,-0.191889 -1.0878,-0.3756 -1.6386,-0.548288 -0.019,-0.006 -0.038,-0.01262 -0.057,-0.0186 v -5.29e-4 c -0.2058,-0.06423 -0.4131,-0.125037 -0.6201,-0.18655 -0.1424,-0.04232 -0.2845,-0.08507 -0.4274,-0.126092 -0.1859,-0.05334 -0.3728,-0.104405 -0.5596,-0.155546 -0.1753,-0.04799 -0.3505,-0.09607 -0.5266,-0.14211 -0.1737,-0.04539 -0.348,-0.08933 -0.5225,-0.132808 -0.1847,-0.04607 -0.3699,-0.09096 -0.5555,-0.134877 -0.1747,-0.04131 -0.3496,-0.08204 -0.525,-0.121438 -0.1895,-0.04257 -0.3797,-0.08319 -0.57,-0.123507 -0.1697,-0.03593 -0.3391,-0.07233 -0.5095,-0.106453 -0.2053,-0.04112 -0.4114,-0.07934 -0.6176,-0.117822 -0.1607,-0.02998 -0.3208,-0.06154 -0.4821,-0.08992 -0.3482,-0.0613 -0.6977,-0.11938 -1.0485,-0.173114 0,-5.3e-4 -0.01,-0.0011 -0.011,-0.0016 -0.115,-0.01757 -0.2309,-0.03234 -0.3462,-0.04909 -0.2586,-0.03761 -0.5173,-0.07454 -0.7772,-0.108003 -0.1437,-0.01849 -0.288,-0.03447 -0.432,-0.05168 -0.2286,-0.02733 -0.4573,-0.05444 -0.6868,-0.07855 -0.1642,-0.01722 -0.3289,-0.03249 -0.4935,-0.04806 -0.2161,-0.02043 -0.4327,-0.0398 -0.6496,-0.05736 -0.1579,-0.01278 -0.316,-0.02492 -0.4744,-0.03617 -0.2303,-0.01638 -0.4612,-0.03082 -0.6924,-0.04392 -0.1533,-0.0087 -0.3064,-0.01757 -0.46,-0.02479 -0.2625,-0.01238 -0.5259,-0.02183 -0.7896,-0.02997 -0.1151,-0.0035 -0.2298,-0.0086 -0.3452,-0.01138 -0.3875,-0.0092 -0.776,-0.01447 -1.1658,-0.01447 h -13.1097 -16.0918 z"
       id="path866"
       sodipodi:nodetypes="ssscssscsssccccssscssscssscsssssssssssssscssssssssssssccssssssssssssccsssssscsssccssssssssscsssssssssssccsscsscsssscscsssssssssssscsssssssssssscssssssssssssccs" />
    <path
       inkscape:export-ydpi="12.440806"
       inkscape:export-xdpi="12.440806"
       sodipodi:nodetypes="sssssscsscccsssssssssccssscss"
       d="m 1669.5345,-27.365605 c -2.9316,0 -5.2917,2.360076 -5.2917,5.291667 0,2.931579 2.3601,5.291666 5.2917,5.291666 h 4.4375 c 2.9315,0 5.2916,2.360076 5.2916,5.291666 0,2.93158 -2.3601,5.291667 -5.2916,5.291667 h -8.7298 -47.2369 c -2.9315,0 -5.641,2.380973 -5.2916,5.29166665 v 5.29166705 5.291666 5.2916673 5.291666 c 0,2.931581 2.3601,5.291667 5.2916,5.291667 h 55.9667 c 2.9315,0 5.2916,2.360078 5.2916,5.291666 0,2.931581 -2.3601,5.291667 -5.2916,5.291667 h -4.4375 c -2.9316,0 -5.2917,2.360078 -5.2917,5.291666 0,2.931581 2.3601,5.291667 5.2917,5.291667 h 12.4872 c 0.2532,0 0.5016,-0.01865 0.7451,-0.05271 0.6554,0.035 1.3116,0.05257 1.9679,0.05271 20.4575,-3e-6 37.0417,-16.58412 37.0417,-37.0416663 0,-20.4575467 -16.5842,-37.0416637 -37.0417,-37.0416657 h -0.01 c -0.4502,2.34e-4 -0.9004,0.0087 -1.3503,0.02532 -0.1687,-0.01608 -0.3396,-0.02532 -0.5127,-0.02532 z"
       style="font-variation-settings:normal;vector-effect:none;fill:#7ecefd;fill-opacity:1;fill-rule:evenodd;stroke-width:0.352777;stroke-linecap:butt;stroke-linejoin:miter;stroke-miterlimit:4;stroke-dasharray:none;stroke-dashoffset:0;stroke-opacity:1;stop-color:#000000"
       id="path868" />
    <path
       inkscape:export-ydpi="12.440806"
       inkscape:export-xdpi="12.440806"
       sodipodi:nodetypes="csssc"
       d="m 1645.6103,-32.657338 c 0,2.922481 -2.3691,5.291629 -5.2916,5.291666 -2.9225,1.9e-5 -5.2917,-2.369146 -5.2917,-5.291666 0,-2.92252 2.3692,-5.291686 5.2917,-5.291667 2.9225,3.7e-5 5.2916,2.369186 5.2916,5.291667"
       style="font-variation-settings:normal;vector-effect:none;fill:#0055d4;fill-opacity:1;fill-rule:evenodd;stroke-width:0.264583;stroke-linecap:butt;stroke-linejoin:miter;stroke-miterlimit:4;stroke-dasharray:none;stroke-dashoffset:0;stroke-opacity:1;stop-color:#000000"
       id="path870" />
    <path
       inkscape:export-ydpi="12.440806"
       inkscape:export-xdpi="12.440806"
       sodipodi:nodetypes="csssc"
       d="m 1645.6103,52.009394 c 0,2.922481 -2.3691,5.29163 -5.2916,5.291667 -2.9225,1.9e-5 -5.2917,-2.369147 -5.2917,-5.291667 0,-2.92252 2.3692,-5.291685 5.2917,-5.291666 2.9225,3.7e-5 5.2916,2.369185 5.2916,5.291666"
       style="font-variation-settings:normal;vector-effect:none;fill:#0055d4;fill-opacity:1;fill-rule:evenodd;stroke-width:0.264583;stroke-linecap:butt;stroke-linejoin:miter;stroke-miterlimit:4;stroke-dasharray:none;stroke-dashoffset:0;stroke-opacity:1;stop-color:#000000"
       id="path872" />
    <path
       inkscape:export-ydpi="12.440806"
       inkscape:export-xdpi="12.440806"
       sodipodi:nodetypes="sssssss"
       d="m 1613.9503,-37.949005 h 14.5946 c 2.9316,0 5.2917,2.36008 5.2917,5.29167 0,2.93158 -2.3601,5.29166 -5.2917,5.29166 h -14.5946 c -2.9316,0 -5.2917,-2.36008 -5.2917,-5.29166 0,-2.93159 2.3601,-5.29167 5.2917,-5.29167 z"
       style="font-variation-settings:normal;vector-effect:none;fill:#0055d4;fill-opacity:1;fill-rule:evenodd;stroke-width:0.352777;stroke-linecap:butt;stroke-linejoin:miter;stroke-miterlimit:4;stroke-dasharray:none;stroke-dashoffset:0;stroke-opacity:1;stop-color:#000000"
       id="path874" />
    <path
       inkscape:export-ydpi="12.440806"
       inkscape:export-xdpi="12.440806"
       sodipodi:nodetypes="sssssss"
       d="m 1613.9503,46.717731 h 14.5946 c 2.9316,0 5.2917,2.36008 5.2917,5.29167 0,2.93158 -2.3601,5.29166 -5.2917,5.29166 h -14.5946 c -3.6797,0 -5.2917,-2.36008 -5.2917,-5.29166 0,-2.93159 2.3601,-5.29167 5.2917,-5.29167 z"
       style="font-variation-settings:normal;vector-effect:none;fill:#0055d4;fill-opacity:1;fill-rule:evenodd;stroke-width:0.352777;stroke-linecap:butt;stroke-linejoin:miter;stroke-miterlimit:4;stroke-dasharray:none;stroke-dashoffset:0;stroke-opacity:1;stop-color:#000000"
       id="path876" />
    <path
       inkscape:export-ydpi="12.440806"
       inkscape:export-xdpi="12.440806"
       d="m 1748.3163,9.6760277 a 5.2916665,5.2916665 0 0 1 -5.2916,5.2916663 5.2916665,5.2916665 0 0 1 -5.2917,-5.2916663 5.2916665,5.2916665 0 0 1 5.2917,-5.291667 5.2916665,5.2916665 0 0 1 5.2916,5.291667"
       style="font-variation-settings:normal;vector-effect:none;fill:#0055d4;fill-opacity:1;fill-rule:evenodd;stroke-width:0.264583;stroke-linecap:butt;stroke-linejoin:miter;stroke-miterlimit:4;stroke-dasharray:none;stroke-dashoffset:0;stroke-opacity:1;stop-color:#000000"
       id="path878" />
    <circle
       inkscape:export-ydpi="12.440806"
       inkscape:export-xdpi="12.440806"
       cx="1667.2299"
       cy="9.6760616"
       r="88.488892"
       id="circle880"
       style="font-variation-settings:normal;opacity:1;vector-effect:none;fill:none;fill-opacity:1;fill-rule:evenodd;stroke:#ffffff;stroke-width:5.29167;stroke-linecap:butt;stroke-linejoin:miter;stroke-miterlimit:4;stroke-dasharray:none;stroke-dashoffset:0;stroke-opacity:1;stop-color:#000000;stop-opacity:1" />
    <path
       inkscape:export-ydpi="12.440806"
       inkscape:export-xdpi="12.440806"
       sodipodi:nodetypes="ssscssscsssccccssscssscssscsssssssssssssscssssssssssssccssssssssssssccsssssscsssccssssssssscsssssssssssccsscsscsssscscsssssssssssscsssssssssssscssssssssssssccs"
       id="path882"
       d="m 1652.7426,-37.948939 c -2.9316,8.4e-5 -5.2916,2.360084 -5.2916,5.291667 0,2.931584 2.36,5.291667 5.2916,5.291667 h 2.9105 1.8331 c 2.9317,0 5.2916,2.360081 5.2916,5.291667 0,2.931581 -2.3599,5.291666 -5.2916,5.291666 h -13.0623 -8.8273 c -2.9316,0 -5.2917,2.360082 -5.2917,5.291666 0,2.9315832 2.3601,5.291667 5.2917,5.291667 h 8.8273 10.5265 v 31.75 h -10.5265 -8.8273 c -2.9316,0 -5.2917,2.360083 -5.2917,5.291666 0,2.931584 2.3601,5.291667 5.2917,5.291667 h 8.8273 13.3518 c 2.9316,0 5.2917,2.360083 5.2917,5.291666 0,2.931584 -2.3601,5.291667 -5.2917,5.291667 h -2.1226 -2.9105 c -2.9316,0 -5.2916,2.360083 -5.2916,5.291667 0,2.931583 2.36,5.291666 5.2916,5.291666 h 2.9105 14.6192 14.5823 c 0.3898,0 0.7783,-0.0052 1.1658,-0.01447 0.1153,-0.0028 0.23,-0.0078 0.3452,-0.01138 0.2636,-0.0081 0.5271,-0.01759 0.7896,-0.02997 0.1536,-0.0072 0.3067,-0.01611 0.4599,-0.02479 0.2349,-0.01331 0.4694,-0.02777 0.7033,-0.04444 0.1446,-0.01029 0.2889,-0.02151 0.4331,-0.03307 0.2382,-0.01913 0.4759,-0.04045 0.7131,-0.06305 0.1516,-0.01442 0.3031,-0.0286 0.4543,-0.04444 0.2316,-0.02429 0.4623,-0.05149 0.6929,-0.07906 0.1441,-0.0172 0.2884,-0.03319 0.4321,-0.05168 0.2599,-0.03347 0.5186,-0.07039 0.7772,-0.108003 0.1152,-0.01675 0.2312,-0.03152 0.3462,-0.04909 0,-5.29e-4 0.01,-0.0011 0.011,-0.0016 0.3508,-0.05373 0.7003,-0.111816 1.0485,-0.173114 0.1612,-0.02838 0.3214,-0.05993 0.4821,-0.08992 0.2062,-0.03849 0.4123,-0.0767 0.6175,-0.117821 0.1704,-0.03412 0.3399,-0.07053 0.5096,-0.106453 0.1903,-0.04031 0.3805,-0.08094 0.57,-0.123507 0.1754,-0.03939 0.3503,-0.08013 0.525,-0.121439 0.1856,-0.04392 0.3708,-0.08881 0.5555,-0.134877 0.1745,-0.04348 0.3488,-0.08742 0.5225,-0.132807 0.1839,-0.04808 0.3668,-0.0981 0.5498,-0.148312 0.1707,-0.04682 0.3417,-0.09294 0.5116,-0.141595 0.1748,-0.05007 0.3485,-0.103021 0.5224,-0.155027 0.1835,-0.05482 0.3674,-0.108413 0.5499,-0.165365 v -5.29e-4 c 0.019,-0.006 0.038,-0.01257 0.057,-0.0186 0.5148,-0.161398 1.0252,-0.332901 1.5322,-0.51108 0.1271,-0.04469 0.2547,-0.08811 0.3814,-0.133842 0.2106,-0.07605 0.4196,-0.155181 0.6288,-0.234093 0.1178,-0.04443 0.2357,-0.08851 0.353,-0.133842 0.2183,-0.08434 0.4354,-0.170944 0.6522,-0.258384 0.1094,-0.0442 0.219,-0.08833 0.3281,-0.133323 0.2211,-0.09116 0.4415,-0.18365 0.6609,-0.278019 0.1056,-0.04542 0.2106,-0.09182 0.3158,-0.137978 0.2166,-0.09502 0.4326,-0.190746 0.6475,-0.288869 0.092,-0.04211 0.1836,-0.08548 0.2754,-0.128159 0.2328,-0.108117 0.4654,-0.2164 0.6961,-0.328144 0.8916,-0.431882 1.767,-0.891397 2.6262,-1.376146 0.01,-0.0033 0.012,-0.0065 0.017,-0.0098 0,-0.0011 0,-0.0021 0.01,-0.0031 0.2636,-0.148965 0.5254,-0.300937 0.7859,-0.454752 0.038,-0.02238 0.076,-0.04469 0.1137,-0.06718 0.2459,-0.146082 0.4899,-0.294577 0.7328,-0.444934 0.051,-0.03181 0.1027,-0.0636 0.154,-0.0956 0.2485,-0.155118 0.4957,-0.31174 0.741,-0.471289 0,-0.0021 0.01,-0.0042 0.01,-0.0062 0.01,-0.0049 0.015,-0.01003 0.023,-0.01497 1.3628,-0.887788 2.6765,-1.843857 3.9372,-2.862874 0.011,-0.0089 0.022,-0.01749 0.033,-0.02635 v 0 c 3.7249,-3.016316 6.9822,-6.584236 9.6496,-10.583333 0,-0.0031 0,-0.0062 0.01,-0.0093 0.2377,-0.356624 0.4698,-0.717174 0.6981,-1.080553 0.04,-0.0633 0.079,-0.126672 0.1189,-0.190169 0.2043,-0.32875 0.4045,-0.660172 0.601,-0.994254 0.03,-0.0514 0.061,-0.102473 0.091,-0.153995 0.6785,-1.163492 1.3094,-2.358546 1.8893,-3.582728 0.042,-0.08806 0.082,-0.176739 0.1235,-0.2651 0.143,-0.3068 0.283,-0.615169 0.4196,-0.925525 0.05,-0.113856 0.1001,-0.227772 0.1494,-0.342099 0.1318,-0.305914 0.2599,-0.613709 0.3855,-0.922941 0.043,-0.106166 0.087,-0.211772 0.1297,-0.318325 2.1708,-5.459868 3.3652,-11.421823 3.3652,-17.6733413 0,-6.2515175 -1.1944,-12.2134739 -3.3652,-17.6733394 -0.042,-0.1053566 -0.086,-0.2097305 -0.1282,-0.3147095 -0.1274,-0.3139676 -0.2578,-0.6263445 -0.3917,-0.9368936 -0.046,-0.1068711 -0.093,-0.2134185 -0.1395,-0.3198773 -0.1388,-0.3154125 -0.281,-0.6287679 -0.4263,-0.9405109 -0.041,-0.08729 -0.081,-0.174999 -0.122,-0.261999 -0.5818,-1.228185 -1.215,-2.427009 -1.896,-3.594096 -0.024,-0.0411 -0.048,-0.08197 -0.072,-0.12299 -0.2004,-0.341193 -0.4052,-0.679289 -0.6139,-1.014925 -0.039,-0.06308 -0.078,-0.126251 -0.1178,-0.189136 -0.2283,-0.363378 -0.4604,-0.723928 -0.6981,-1.080554 0,-0.0031 0,-0.0062 -0.01,-0.0093 -2.6674,-3.999098 -5.9247,-7.567018 -9.6496,-10.583333 v 0 c -0.011,-0.0089 -0.022,-0.01749 -0.033,-0.02636 -1.2607,-1.019016 -2.5744,-1.975087 -3.9372,-2.862874 -0.01,-0.005 -0.015,-0.01004 -0.023,-0.01499 0,-0.002 -0.01,-0.0037 -0.01,-0.0057 -0.2577,-0.167571 -0.5171,-0.332379 -0.7782,-0.49506 -0.029,-0.01792 -0.057,-0.03588 -0.086,-0.05374 -0.2535,-0.157138 -0.5082,-0.312093 -0.7648,-0.464571 -0.037,-0.02217 -0.075,-0.04408 -0.1122,-0.06615 -0.2605,-0.153818 -0.5223,-0.305788 -0.7859,-0.454753 0,-9.79e-4 0,-0.0021 -0.01,-0.0031 -0.01,-0.003 -0.011,-0.0058 -0.016,-0.0088 -1.1077,-0.625018 -2.2434,-1.206409 -3.4045,-1.743048 -0.056,-0.02606 -0.1124,-0.05269 -0.169,-0.07855 -0.2271,-0.103929 -0.4555,-0.205478 -0.6847,-0.305925 -0.1013,-0.04445 -0.2026,-0.08905 -0.3043,-0.13281 -0.2195,-0.09437 -0.4398,-0.186859 -0.661,-0.278019 -0.1091,-0.04499 -0.2186,-0.08912 -0.3281,-0.133324 -0.2167,-0.08744 -0.4339,-0.17405 -0.6522,-0.258381 -0.1107,-0.04281 -0.2222,-0.08409 -0.3333,-0.126093 -0.2236,-0.08444 -0.4471,-0.168941 -0.6723,-0.250113 -0.083,-0.03008 -0.1675,-0.05874 -0.2512,-0.08836 -0.5418,-0.191889 -1.0878,-0.3756 -1.6386,-0.548288 -0.019,-0.006 -0.038,-0.01262 -0.057,-0.0186 v -5.29e-4 c -0.2058,-0.06423 -0.4131,-0.125037 -0.6201,-0.18655 -0.1424,-0.04232 -0.2845,-0.08507 -0.4274,-0.126092 -0.1859,-0.05334 -0.3728,-0.104405 -0.5596,-0.155546 -0.1753,-0.04799 -0.3505,-0.09607 -0.5266,-0.14211 -0.1737,-0.04539 -0.348,-0.08933 -0.5225,-0.132808 -0.1847,-0.04607 -0.3699,-0.09096 -0.5555,-0.134877 -0.1747,-0.04131 -0.3496,-0.08204 -0.525,-0.121438 -0.1895,-0.04257 -0.3797,-0.08319 -0.57,-0.123507 -0.1697,-0.03593 -0.3391,-0.07233 -0.5095,-0.106453 -0.2053,-0.04112 -0.4114,-0.07934 -0.6176,-0.117822 -0.1607,-0.02998 -0.3208,-0.06154 -0.4821,-0.08992 -0.3482,-0.0613 -0.6977,-0.11938 -1.0485,-0.173114 0,-5.3e-4 -0.01,-0.0011 -0.011,-0.0016 -0.115,-0.01757 -0.2309,-0.03234 -0.3462,-0.04909 -0.2586,-0.03761 -0.5173,-0.07454 -0.7772,-0.108003 -0.1437,-0.01849 -0.288,-0.03447 -0.432,-0.05168 -0.2286,-0.02733 -0.4573,-0.05444 -0.6868,-0.07855 -0.1642,-0.01722 -0.3289,-0.03249 -0.4935,-0.04806 -0.2161,-0.02043 -0.4327,-0.0398 -0.6496,-0.05736 -0.1579,-0.01278 -0.316,-0.02492 -0.4744,-0.03617 -0.2303,-0.01638 -0.4612,-0.03082 -0.6924,-0.04392 -0.1533,-0.0087 -0.3064,-0.01757 -0.46,-0.02479 -0.2625,-0.01238 -0.5259,-0.02183 -0.7896,-0.02997 -0.1151,-0.0035 -0.2298,-0.0086 -0.3452,-0.01138 -0.3875,-0.0092 -0.776,-0.01447 -1.1658,-0.01447 h -13.1097 -16.0918 z"
       style="font-variation-settings:normal;vector-effect:none;fill:#0055d4;fill-opacity:1;fill-rule:evenodd;stroke-width:0.355666;stroke-linecap:butt;stroke-linejoin:miter;stroke-miterlimit:4;stroke-dasharray:none;stroke-dashoffset:0;stroke-opacity:1;stop-color:#000000" />
    <path
       inkscape:export-ydpi="13.935411"
       inkscape:export-xdpi="13.935411"
       sodipodi:nodetypes="ssscssscsssccccssscssscssscsssssssssssssscssssssssssssccssssssssssssccsssssscsssccssssssssscsssssssssssccsscsscsssscscsssssssssssscsssssssssssscssssssssssssccs"
       id="path901"
       d="m 2044.2991,-37.948939 c -2.9316,8.4e-5 -5.2916,2.360084 -5.2916,5.291667 0,2.931584 2.36,5.291667 5.2916,5.291667 h 2.9105 1.8331 c 2.9317,0 5.2916,2.360081 5.2916,5.291667 0,2.931581 -2.3599,5.291666 -5.2916,5.291666 h -13.0623 -8.8273 c -2.9316,0 -5.2917,2.360082 -5.2917,5.291666 0,2.9315832 2.3601,5.291667 5.2917,5.291667 h 8.8273 10.5265 v 31.75 h -10.5265 -8.8273 c -2.9316,0 -5.2917,2.360083 -5.2917,5.291666 0,2.931584 2.3601,5.291667 5.2917,5.291667 h 8.8273 13.3518 c 2.9316,0 5.2917,2.360083 5.2917,5.291666 0,2.931584 -2.3601,5.291667 -5.2917,5.291667 h -2.1226 -2.9105 c -2.9316,0 -5.2916,2.360083 -5.2916,5.291667 0,2.931583 2.36,5.291666 5.2916,5.291666 h 2.9105 14.6192 14.5823 c 0.3898,0 0.7783,-0.0052 1.1658,-0.01447 0.1153,-0.0028 0.23,-0.0078 0.3452,-0.01138 0.2636,-0.0081 0.5271,-0.01759 0.7896,-0.02997 0.1536,-0.0072 0.3067,-0.01611 0.4599,-0.02479 0.2349,-0.01331 0.4694,-0.02777 0.7033,-0.04444 0.1446,-0.01029 0.2889,-0.02151 0.4331,-0.03307 0.2382,-0.01913 0.4759,-0.04045 0.7131,-0.06305 0.1516,-0.01442 0.3031,-0.0286 0.4543,-0.04444 0.2316,-0.02429 0.4623,-0.05149 0.6929,-0.07906 0.1441,-0.0172 0.2884,-0.03319 0.4321,-0.05168 0.2599,-0.03347 0.5186,-0.07039 0.7772,-0.108003 0.1152,-0.01675 0.2312,-0.03152 0.3462,-0.04909 0,-5.29e-4 0.01,-0.0011 0.011,-0.0016 0.3508,-0.05373 0.7003,-0.111816 1.0485,-0.173114 0.1612,-0.02838 0.3214,-0.05993 0.4821,-0.08992 0.2062,-0.03849 0.4123,-0.0767 0.6175,-0.117821 0.1704,-0.03412 0.3399,-0.07053 0.5096,-0.106453 0.1903,-0.04031 0.3805,-0.08094 0.57,-0.123507 0.1754,-0.03939 0.3503,-0.08013 0.525,-0.121439 0.1856,-0.04392 0.3708,-0.08881 0.5555,-0.134877 0.1745,-0.04348 0.3488,-0.08742 0.5225,-0.132807 0.1839,-0.04808 0.3668,-0.0981 0.5498,-0.148312 0.1707,-0.04682 0.3417,-0.09294 0.5116,-0.141595 0.1748,-0.05007 0.3485,-0.103021 0.5224,-0.155027 0.1835,-0.05482 0.3674,-0.108413 0.5499,-0.165365 v -5.29e-4 c 0.019,-0.006 0.038,-0.01257 0.057,-0.0186 0.5148,-0.161398 1.0252,-0.332901 1.5322,-0.51108 0.1271,-0.04469 0.2547,-0.08811 0.3814,-0.133842 0.2106,-0.07605 0.4196,-0.155181 0.6288,-0.234093 0.1178,-0.04443 0.2357,-0.08851 0.353,-0.133842 0.2183,-0.08434 0.4354,-0.170944 0.6522,-0.258384 0.1094,-0.0442 0.219,-0.08833 0.3281,-0.133323 0.2211,-0.09116 0.4415,-0.18365 0.6609,-0.278019 0.1056,-0.04542 0.2106,-0.09182 0.3158,-0.137978 0.2166,-0.09502 0.4326,-0.190746 0.6475,-0.288869 0.092,-0.04211 0.1836,-0.08548 0.2754,-0.128159 0.2328,-0.108117 0.4654,-0.2164 0.6961,-0.328144 0.8916,-0.431882 1.767,-0.891397 2.6262,-1.376146 0.01,-0.0033 0.012,-0.0065 0.017,-0.0098 0,-0.0011 0,-0.0021 0.01,-0.0031 0.2636,-0.148965 0.5254,-0.300937 0.7859,-0.454752 0.038,-0.02238 0.076,-0.04469 0.1137,-0.06718 0.2459,-0.146082 0.4899,-0.294577 0.7328,-0.444934 0.051,-0.03181 0.1027,-0.0636 0.154,-0.0956 0.2485,-0.155118 0.4957,-0.31174 0.741,-0.471289 0,-0.0021 0.01,-0.0042 0.01,-0.0062 0.01,-0.0049 0.015,-0.01003 0.023,-0.01497 1.3628,-0.887788 2.6765,-1.843857 3.9372,-2.862874 0.011,-0.0089 0.022,-0.01749 0.033,-0.02635 v 0 c 3.7249,-3.016316 6.9822,-6.584236 9.6496,-10.583333 0,-0.0031 0,-0.0062 0.01,-0.0093 0.2377,-0.356624 0.4698,-0.717174 0.6981,-1.080553 0.04,-0.0633 0.079,-0.126672 0.1189,-0.190169 0.2043,-0.32875 0.4045,-0.660172 0.601,-0.994254 0.03,-0.0514 0.061,-0.102473 0.091,-0.153995 0.6785,-1.163492 1.3094,-2.358546 1.8893,-3.582728 0.042,-0.08806 0.082,-0.176739 0.1235,-0.2651 0.143,-0.3068 0.283,-0.615169 0.4196,-0.925525 0.05,-0.113856 0.1001,-0.227772 0.1494,-0.342099 0.1318,-0.305914 0.2599,-0.613709 0.3855,-0.922941 0.043,-0.106166 0.087,-0.211772 0.1297,-0.318325 2.1708,-5.459868 3.3652,-11.421823 3.3652,-17.6733413 0,-6.2515175 -1.1944,-12.2134739 -3.3652,-17.6733394 -0.042,-0.1053566 -0.086,-0.2097305 -0.1282,-0.3147095 -0.1274,-0.3139676 -0.2578,-0.6263445 -0.3917,-0.9368936 -0.046,-0.1068711 -0.093,-0.2134185 -0.1395,-0.3198773 -0.1388,-0.3154125 -0.281,-0.6287679 -0.4263,-0.9405109 -0.041,-0.08729 -0.081,-0.174999 -0.122,-0.261999 -0.5818,-1.228185 -1.215,-2.427009 -1.896,-3.594096 -0.024,-0.0411 -0.048,-0.08197 -0.072,-0.12299 -0.2004,-0.341193 -0.4052,-0.679289 -0.6139,-1.014925 -0.039,-0.06308 -0.078,-0.126251 -0.1178,-0.189136 -0.2283,-0.363378 -0.4604,-0.723928 -0.6981,-1.080554 0,-0.0031 0,-0.0062 -0.01,-0.0093 -2.6674,-3.999098 -5.9247,-7.567018 -9.6496,-10.583333 v 0 c -0.011,-0.0089 -0.022,-0.01749 -0.033,-0.02636 -1.2607,-1.019016 -2.5744,-1.975087 -3.9372,-2.862874 -0.01,-0.005 -0.015,-0.01004 -0.023,-0.01499 0,-0.002 -0.01,-0.0037 -0.01,-0.0057 -0.2577,-0.167571 -0.5171,-0.332379 -0.7782,-0.49506 -0.029,-0.01792 -0.057,-0.03588 -0.086,-0.05374 -0.2535,-0.157138 -0.5082,-0.312093 -0.7648,-0.464571 -0.037,-0.02217 -0.075,-0.04408 -0.1122,-0.06615 -0.2605,-0.153818 -0.5223,-0.305788 -0.7859,-0.454753 0,-9.79e-4 0,-0.0021 -0.01,-0.0031 -0.01,-0.003 -0.011,-0.0058 -0.016,-0.0088 -1.1077,-0.625018 -2.2434,-1.206409 -3.4045,-1.743048 -0.056,-0.02606 -0.1124,-0.05269 -0.169,-0.07855 -0.2271,-0.103929 -0.4555,-0.205478 -0.6847,-0.305925 -0.1013,-0.04445 -0.2026,-0.08905 -0.3043,-0.13281 -0.2195,-0.09437 -0.4398,-0.186859 -0.661,-0.278019 -0.1091,-0.04499 -0.2186,-0.08912 -0.3281,-0.133324 -0.2167,-0.08744 -0.4339,-0.17405 -0.6522,-0.258381 -0.1107,-0.04281 -0.2222,-0.08409 -0.3333,-0.126093 -0.2236,-0.08444 -0.4471,-0.168941 -0.6723,-0.250113 -0.083,-0.03008 -0.1675,-0.05874 -0.2512,-0.08836 -0.5418,-0.191889 -1.0878,-0.3756 -1.6386,-0.548288 -0.019,-0.006 -0.038,-0.01262 -0.057,-0.0186 v -5.29e-4 c -0.2058,-0.06423 -0.4131,-0.125037 -0.6201,-0.18655 -0.1424,-0.04232 -0.2845,-0.08507 -0.4274,-0.126092 -0.1859,-0.05334 -0.3728,-0.104405 -0.5596,-0.155546 -0.1753,-0.04799 -0.3505,-0.09607 -0.5266,-0.14211 -0.1737,-0.04539 -0.348,-0.08933 -0.5225,-0.132808 -0.1847,-0.04607 -0.3699,-0.09096 -0.5555,-0.134877 -0.1747,-0.04131 -0.3496,-0.08204 -0.525,-0.121438 -0.1895,-0.04257 -0.3797,-0.08319 -0.57,-0.123507 -0.1697,-0.03593 -0.3391,-0.07233 -0.5095,-0.106453 -0.2053,-0.04112 -0.4114,-0.07934 -0.6176,-0.117822 -0.1607,-0.02998 -0.3208,-0.06154 -0.4821,-0.08992 -0.3482,-0.0613 -0.6977,-0.11938 -1.0485,-0.173114 0,-5.3e-4 -0.01,-0.0011 -0.011,-0.0016 -0.115,-0.01757 -0.2309,-0.03234 -0.3462,-0.04909 -0.2586,-0.03761 -0.5173,-0.07454 -0.7772,-0.108003 -0.1437,-0.01849 -0.288,-0.03447 -0.432,-0.05168 -0.2286,-0.02733 -0.4573,-0.05444 -0.6868,-0.07855 -0.1642,-0.01722 -0.3289,-0.03249 -0.4935,-0.04806 -0.2161,-0.02043 -0.4327,-0.0398 -0.6496,-0.05736 -0.1579,-0.01278 -0.316,-0.02492 -0.4744,-0.03617 -0.2303,-0.01638 -0.4612,-0.03082 -0.6924,-0.04392 -0.1533,-0.0087 -0.3064,-0.01757 -0.46,-0.02479 -0.2625,-0.01238 -0.5259,-0.02183 -0.7896,-0.02997 -0.1151,-0.0035 -0.2298,-0.0086 -0.3452,-0.01138 -0.3875,-0.0092 -0.776,-0.01447 -1.1658,-0.01447 h -13.1097 -16.0918 z"
       style="font-variation-settings:normal;vector-effect:none;fill:#0055d4;fill-opacity:1;fill-rule:evenodd;stroke-width:0.355666;stroke-linecap:butt;stroke-linejoin:miter;stroke-miterlimit:4;stroke-dasharray:none;stroke-dashoffset:0;stroke-opacity:1;stop-color:#000000" />
    <path
       inkscape:export-ydpi="13.935411"
       inkscape:export-xdpi="13.935411"
       id="path903"
       style="font-variation-settings:normal;vector-effect:none;fill:#0055d4;fill-opacity:1;fill-rule:evenodd;stroke-width:0.352777;stroke-linecap:butt;stroke-linejoin:miter;stroke-miterlimit:4;stroke-dasharray:none;stroke-dashoffset:0;stroke-opacity:1;stop-color:#000000"
       d="m 2061.091,-27.365605 c -2.9316,0 -5.2917,2.360076 -5.2917,5.291667 0,2.931579 2.3601,5.291666 5.2917,5.291666 h 4.4375 c 2.9315,0 5.2916,2.360076 5.2916,5.291666 0,2.93158 -2.3601,5.291667 -5.2916,5.291667 h -8.7298 l -45.368,0 v 5.29166665 5.29166705 5.291666 5.2916673 5.291666 5.291667 l 54.0978,0 c 2.9315,0 5.2916,2.360078 5.2916,5.291666 0,2.931581 -2.3601,5.291667 -5.2916,5.291667 h -4.4375 c -2.9316,0 -5.2917,2.360078 -5.2917,5.291666 0,2.931581 2.3601,5.291667 5.2917,5.291667 h 12.4872 c 0.2532,0 0.5016,-0.01865 0.7451,-0.05271 0.6554,0.035 1.3116,0.05257 1.9679,0.05271 20.4575,-3e-6 37.0417,-16.58412 37.0417,-37.0416663 0,-20.4575467 -16.5842,-37.0416637 -37.0417,-37.0416657 h -0.01 c -0.4502,2.34e-4 -0.9004,0.0087 -1.3503,0.02532 -0.1687,-0.01608 -0.3396,-0.02532 -0.5127,-0.02532 z"
       sodipodi:nodetypes="ssssssccccccccsssssssccssscss" />
    <path
       inkscape:export-ydpi="13.935411"
       inkscape:export-xdpi="13.935411"
       id="path905"
       style="font-variation-settings:normal;vector-effect:none;fill:#0055d4;fill-opacity:1;fill-rule:evenodd;stroke-width:0.264583;stroke-linecap:butt;stroke-linejoin:miter;stroke-miterlimit:4;stroke-dasharray:none;stroke-dashoffset:0;stroke-opacity:1;stop-color:#000000"
       d="m 2037.1668,-32.657338 c 0,2.922481 -2.3691,5.291629 -5.2916,5.291666 -2.9225,1.9e-5 -5.2917,-2.369146 -5.2917,-5.291666 0,-2.92252 2.3692,-5.291686 5.2917,-5.291667 2.9225,3.7e-5 5.2916,2.369186 5.2916,5.291667"
       sodipodi:nodetypes="csssc" />
    <path
       inkscape:export-ydpi="13.935411"
       inkscape:export-xdpi="13.935411"
       id="path907"
       style="font-variation-settings:normal;vector-effect:none;fill:#0055d4;fill-opacity:1;fill-rule:evenodd;stroke-width:0.264583;stroke-linecap:butt;stroke-linejoin:miter;stroke-miterlimit:4;stroke-dasharray:none;stroke-dashoffset:0;stroke-opacity:1;stop-color:#000000"
       d="m 2037.1668,52.009394 c 0,2.922481 -2.3691,5.29163 -5.2916,5.291667 -2.9225,1.9e-5 -5.2917,-2.369147 -5.2917,-5.291667 0,-2.92252 2.3692,-5.291685 5.2917,-5.291666 2.9225,3.7e-5 5.2916,2.369185 5.2916,5.291666"
       sodipodi:nodetypes="csssc" />
    <path
       inkscape:export-ydpi="13.935411"
       inkscape:export-xdpi="13.935411"
       id="path909"
       style="font-variation-settings:normal;vector-effect:none;fill:#0055d4;fill-opacity:1;fill-rule:evenodd;stroke-width:0.352777;stroke-linecap:butt;stroke-linejoin:miter;stroke-miterlimit:4;stroke-dasharray:none;stroke-dashoffset:0;stroke-opacity:1;stop-color:#000000"
       d="m 2005.5068,-37.949005 h 14.5946 c 2.9316,0 5.2917,2.36008 5.2917,5.29167 0,2.93158 -2.3601,5.29166 -5.2917,5.29166 h -14.5946 c -2.9316,0 -5.2917,-2.36008 -5.2917,-5.29166 0,-2.93159 2.3601,-5.29167 5.2917,-5.29167 z"
       sodipodi:nodetypes="sssssss" />
    <path
       inkscape:export-ydpi="13.935411"
       inkscape:export-xdpi="13.935411"
       id="path911"
       style="font-variation-settings:normal;vector-effect:none;fill:#0055d4;fill-opacity:1;fill-rule:evenodd;stroke-width:0.352777;stroke-linecap:butt;stroke-linejoin:miter;stroke-miterlimit:4;stroke-dasharray:none;stroke-dashoffset:0;stroke-opacity:1;stop-color:#000000"
       d="m 2005.5068,46.717731 h 14.5946 c 2.9316,0 5.2917,2.36008 5.2917,5.29167 0,2.93158 -2.3601,5.29166 -5.2917,5.29166 h -14.5946 c -3.6797,0 -5.2917,-2.36008 -5.2917,-5.29166 0,-2.93159 2.3601,-5.29167 5.2917,-5.29167 z"
       sodipodi:nodetypes="sssssss" />
    <path
       inkscape:export-ydpi="13.935411"
       inkscape:export-xdpi="13.935411"
       id="path913"
       style="font-variation-settings:normal;vector-effect:none;fill:#0055d4;fill-opacity:1;fill-rule:evenodd;stroke-width:0.264583;stroke-linecap:butt;stroke-linejoin:miter;stroke-miterlimit:4;stroke-dasharray:none;stroke-dashoffset:0;stroke-opacity:1;stop-color:#000000"
       d="m 2139.8728,9.6760277 a 5.2916665,5.2916665 0 0 1 -5.2916,5.2916663 5.2916665,5.2916665 0 0 1 -5.2917,-5.2916663 5.2916665,5.2916665 0 0 1 5.2917,-5.291667 5.2916665,5.2916665 0 0 1 5.2916,5.291667" />
    <circle
       style="font-variation-settings:normal;opacity:1;vector-effect:none;fill:none;fill-opacity:1;fill-rule:evenodd;stroke:#ffffff;stroke-width:5.29167;stroke-linecap:butt;stroke-linejoin:miter;stroke-miterlimit:4;stroke-dasharray:none;stroke-dashoffset:0;stroke-opacity:1;stop-color:#000000;stop-opacity:1"
       id="circle915"
       r="88.488892"
       cy="9.6760616"
       cx="2058.7864"
       inkscape:export-xdpi="13.935411"
       inkscape:export-ydpi="13.935411" />
    <path
       inkscape:export-ydpi="13.935411"
       inkscape:export-xdpi="13.935411"
       style="font-variation-settings:normal;vector-effect:none;fill:#0055d4;fill-opacity:1;fill-rule:evenodd;stroke-width:0.355666;stroke-linecap:butt;stroke-linejoin:miter;stroke-miterlimit:4;stroke-dasharray:none;stroke-dashoffset:0;stroke-opacity:1;stop-color:#000000"
       d="m 2044.2991,-37.948939 c -2.9316,8.4e-5 -5.2916,2.360084 -5.2916,5.291667 0,2.931584 2.36,5.291667 5.2916,5.291667 h 2.9105 1.8331 c 2.9317,0 5.2916,2.360081 5.2916,5.291667 0,2.931581 -2.3599,5.291666 -5.2916,5.291666 h -13.0623 l -19.2581,0 c -2.9316,0 -5.2916,2.360082 -5.2916,5.291666 v 5.291667 l 24.5497,0 h 10.5265 v 31.75 h -10.5265 l -24.5497,0 v 5.291666 c 0,2.931584 2.36,5.291667 5.2916,5.291667 l 19.2581,0 h 13.3518 c 2.9316,0 5.2917,2.360083 5.2917,5.291666 0,2.931584 -2.3601,5.291667 -5.2917,5.291667 h -2.1226 -2.9105 c -2.9316,0 -5.2916,2.360083 -5.2916,5.291667 0,2.931583 2.36,5.291666 5.2916,5.291666 h 2.9105 14.6192 14.5823 c 0.3898,0 0.7783,-0.0052 1.1658,-0.01447 0.1153,-0.0028 0.23,-0.0078 0.3452,-0.01138 0.2636,-0.0081 0.5271,-0.01759 0.7896,-0.02997 0.1536,-0.0072 0.3067,-0.01611 0.4599,-0.02479 0.2349,-0.01331 0.4694,-0.02777 0.7033,-0.04444 0.1446,-0.01029 0.2889,-0.02151 0.4331,-0.03307 0.2382,-0.01913 0.4759,-0.04045 0.7131,-0.06305 0.1516,-0.01442 0.3031,-0.0286 0.4543,-0.04444 0.2316,-0.02429 0.4623,-0.05149 0.6929,-0.07906 0.1441,-0.0172 0.2884,-0.03319 0.4321,-0.05168 0.2599,-0.03347 0.5186,-0.07039 0.7772,-0.108003 0.1152,-0.01675 0.2312,-0.03152 0.3462,-0.04909 0,-5.29e-4 0.01,-0.0011 0.011,-0.0016 0.3508,-0.05373 0.7003,-0.111816 1.0485,-0.173114 0.1612,-0.02838 0.3214,-0.05993 0.4821,-0.08992 0.2062,-0.03849 0.4123,-0.0767 0.6175,-0.117821 0.1704,-0.03412 0.3399,-0.07053 0.5096,-0.106453 0.1903,-0.04031 0.3805,-0.08094 0.57,-0.123507 0.1754,-0.03939 0.3503,-0.08013 0.525,-0.121439 0.1856,-0.04392 0.3708,-0.08881 0.5555,-0.134877 0.1745,-0.04348 0.3488,-0.08742 0.5225,-0.132807 0.1839,-0.04808 0.3668,-0.0981 0.5498,-0.148312 0.1707,-0.04682 0.3417,-0.09294 0.5116,-0.141595 0.1748,-0.05007 0.3485,-0.103021 0.5224,-0.155027 0.1835,-0.05482 0.3674,-0.108413 0.5499,-0.165365 v -5.29e-4 c 0.019,-0.006 0.038,-0.01257 0.057,-0.0186 0.5148,-0.161398 1.0252,-0.332901 1.5322,-0.51108 0.1271,-0.04469 0.2547,-0.08811 0.3814,-0.133842 0.2106,-0.07605 0.4196,-0.155181 0.6288,-0.234093 0.1178,-0.04443 0.2357,-0.08851 0.353,-0.133842 0.2183,-0.08434 0.4354,-0.170944 0.6522,-0.258384 0.1094,-0.0442 0.219,-0.08833 0.3281,-0.133323 0.2211,-0.09116 0.4415,-0.18365 0.6609,-0.278019 0.1056,-0.04542 0.2106,-0.09182 0.3158,-0.137978 0.2166,-0.09502 0.4326,-0.190746 0.6475,-0.288869 0.092,-0.04211 0.1836,-0.08548 0.2754,-0.128159 0.2328,-0.108117 0.4654,-0.2164 0.6961,-0.328144 0.8916,-0.431882 1.767,-0.891397 2.6262,-1.376146 0.01,-0.0033 0.012,-0.0065 0.017,-0.0098 0,-0.0011 0,-0.0021 0.01,-0.0031 0.2636,-0.148965 0.5254,-0.300937 0.7859,-0.454752 0.038,-0.02238 0.076,-0.04469 0.1137,-0.06718 0.2459,-0.146082 0.4899,-0.294577 0.7328,-0.444934 0.051,-0.03181 0.1027,-0.0636 0.154,-0.0956 0.2485,-0.155118 0.4957,-0.31174 0.741,-0.471289 0,-0.0021 0.01,-0.0042 0.01,-0.0062 0.01,-0.0049 0.015,-0.01003 0.023,-0.01497 1.3628,-0.887788 2.6765,-1.843857 3.9372,-2.862874 0.011,-0.0089 0.022,-0.01749 0.033,-0.02635 v 0 c 3.7249,-3.016316 6.9822,-6.584236 9.6496,-10.583333 0,-0.0031 0,-0.0062 0.01,-0.0093 0.2377,-0.356624 0.4698,-0.717174 0.6981,-1.080553 0.04,-0.0633 0.079,-0.126672 0.1189,-0.190169 0.2043,-0.32875 0.4045,-0.660172 0.601,-0.994254 0.03,-0.0514 0.061,-0.102473 0.091,-0.153995 0.6785,-1.163492 1.3094,-2.358546 1.8893,-3.582728 0.042,-0.08806 0.082,-0.176739 0.1235,-0.2651 0.143,-0.3068 0.283,-0.615169 0.4196,-0.925525 0.05,-0.113856 0.1001,-0.227772 0.1494,-0.342099 0.1318,-0.305914 0.2599,-0.613709 0.3855,-0.922941 0.043,-0.106166 0.087,-0.211772 0.1297,-0.318325 2.1708,-5.459868 3.3652,-11.421823 3.3652,-17.6733413 0,-6.2515175 -1.1944,-12.2134739 -3.3652,-17.6733394 -0.042,-0.1053566 -0.086,-0.2097305 -0.1282,-0.3147095 -0.1274,-0.3139676 -0.2578,-0.6263445 -0.3917,-0.9368936 -0.046,-0.1068711 -0.093,-0.2134185 -0.1395,-0.3198773 -0.1388,-0.3154125 -0.281,-0.6287679 -0.4263,-0.9405109 -0.041,-0.08729 -0.081,-0.174999 -0.122,-0.261999 -0.5818,-1.228185 -1.215,-2.427009 -1.896,-3.594096 -0.024,-0.0411 -0.048,-0.08197 -0.072,-0.12299 -0.2004,-0.341193 -0.4052,-0.679289 -0.6139,-1.014925 -0.039,-0.06308 -0.078,-0.126251 -0.1178,-0.189136 -0.2283,-0.363378 -0.4604,-0.723928 -0.6981,-1.080554 0,-0.0031 0,-0.0062 -0.01,-0.0093 -2.6674,-3.999098 -5.9247,-7.567018 -9.6496,-10.583333 v 0 c -0.011,-0.0089 -0.022,-0.01749 -0.033,-0.02636 -1.2607,-1.019016 -2.5744,-1.975087 -3.9372,-2.862874 -0.01,-0.005 -0.015,-0.01004 -0.023,-0.01499 0,-0.002 -0.01,-0.0037 -0.01,-0.0057 -0.2577,-0.167571 -0.5171,-0.332379 -0.7782,-0.49506 -0.029,-0.01792 -0.057,-0.03588 -0.086,-0.05374 -0.2535,-0.157138 -0.5082,-0.312093 -0.7648,-0.464571 -0.037,-0.02217 -0.075,-0.04408 -0.1122,-0.06615 -0.2605,-0.153818 -0.5223,-0.305788 -0.7859,-0.454753 0,-9.79e-4 0,-0.0021 -0.01,-0.0031 -0.01,-0.003 -0.011,-0.0058 -0.016,-0.0088 -1.1077,-0.625018 -2.2434,-1.206409 -3.4045,-1.743048 -0.056,-0.02606 -0.1124,-0.05269 -0.169,-0.07855 -0.2271,-0.103929 -0.4555,-0.205478 -0.6847,-0.305925 -0.1013,-0.04445 -0.2026,-0.08905 -0.3043,-0.13281 -0.2195,-0.09437 -0.4398,-0.186859 -0.661,-0.278019 -0.1091,-0.04499 -0.2186,-0.08912 -0.3281,-0.133324 -0.2167,-0.08744 -0.4339,-0.17405 -0.6522,-0.258381 -0.1107,-0.04281 -0.2222,-0.08409 -0.3333,-0.126093 -0.2236,-0.08444 -0.4471,-0.168941 -0.6723,-0.250113 -0.083,-0.03008 -0.1675,-0.05874 -0.2512,-0.08836 -0.5418,-0.191889 -1.0878,-0.3756 -1.6386,-0.548288 -0.019,-0.006 -0.038,-0.01262 -0.057,-0.0186 v -5.29e-4 c -0.2058,-0.06423 -0.4131,-0.125037 -0.6201,-0.18655 -0.1424,-0.04232 -0.2845,-0.08507 -0.4274,-0.126092 -0.1859,-0.05334 -0.3728,-0.104405 -0.5596,-0.155546 -0.1753,-0.04799 -0.3505,-0.09607 -0.5266,-0.14211 -0.1737,-0.04539 -0.348,-0.08933 -0.5225,-0.132808 -0.1847,-0.04607 -0.3699,-0.09096 -0.5555,-0.134877 -0.1747,-0.04131 -0.3496,-0.08204 -0.525,-0.121438 -0.1895,-0.04257 -0.3797,-0.08319 -0.57,-0.123507 -0.1697,-0.03593 -0.3391,-0.07233 -0.5095,-0.106453 -0.2053,-0.04112 -0.4114,-0.07934 -0.6176,-0.117822 -0.1607,-0.02998 -0.3208,-0.06154 -0.4821,-0.08992 -0.3482,-0.0613 -0.6977,-0.11938 -1.0485,-0.173114 0,-5.3e-4 -0.01,-0.0011 -0.011,-0.0016 -0.115,-0.01757 -0.2309,-0.03234 -0.3462,-0.04909 -0.2586,-0.03761 -0.5173,-0.07454 -0.7772,-0.108003 -0.1437,-0.01849 -0.288,-0.03447 -0.432,-0.05168 -0.2286,-0.02733 -0.4573,-0.05444 -0.6868,-0.07855 -0.1642,-0.01722 -0.3289,-0.03249 -0.4935,-0.04806 -0.2161,-0.02043 -0.4327,-0.0398 -0.6496,-0.05736 -0.1579,-0.01278 -0.316,-0.02492 -0.4744,-0.03617 -0.2303,-0.01638 -0.4612,-0.03082 -0.6924,-0.04392 -0.1533,-0.0087 -0.3064,-0.01757 -0.46,-0.02479 -0.2625,-0.01238 -0.5259,-0.02183 -0.7896,-0.02997 -0.1151,-0.0035 -0.2298,-0.0086 -0.3452,-0.01138 -0.3875,-0.0092 -0.776,-0.01447 -1.1658,-0.01447 h -13.1097 -16.0918 z"
       id="path917"
       sodipodi:nodetypes="ssscssscssccccccsscssscssscsssssssssssssscssssssssssssccssssssssssssccsssssscsssccssssssssscsssssssssssccsscsscsssscscsssssssssssscsssssssssssscssssssssssssccs" />
    <path
       inkscape:export-ydpi="13.935411"
       inkscape:export-xdpi="13.935411"
       d="m 2114.7309,9.6760192 a 33.415617,33.415617 0 0 1 -33.4156,33.4156158 33.415617,33.415617 0 0 1 -33.4156,-33.4156158 33.415617,33.415617 0 0 1 33.4156,-33.4156162 33.415617,33.415617 0 0 1 33.4156,33.4156162 z"
       style="font-variation-settings:normal;opacity:1;vector-effect:none;fill:#7ecefd;fill-opacity:1;fill-rule:evenodd;stroke-width:0.264583;stroke-linecap:butt;stroke-linejoin:miter;stroke-miterlimit:4;stroke-dasharray:none;stroke-dashoffset:0;stroke-opacity:1;stop-color:#000000;stop-opacity:1"
       id="path921" />
    <circle
       inkscape:export-ydpi="12.440806"
       inkscape:export-xdpi="12.440806"
       style="font-variation-settings:normal;opacity:1;vector-effect:none;fill:#7ecefd;fill-opacity:1;fill-rule:evenodd;stroke-width:0.264583;stroke-linecap:butt;stroke-linejoin:miter;stroke-miterlimit:4;stroke-dasharray:none;stroke-dashoffset:0;stroke-opacity:1;stop-color:#000000;stop-opacity:1"
       id="path886"
       cx="2479.3145"
       cy="2.0134726"
       r="55.806858" />
    <circle
       inkscape:export-ydpi="12.440806"
       inkscape:export-xdpi="12.440806"
       r="17.249392"
       cy="2.0134726"
       cx="2398.1409"
       id="circle888"
       style="font-variation-settings:normal;opacity:1;vector-effect:none;fill:#7ecefd;fill-opacity:1;fill-rule:evenodd;stroke-width:0.264583;stroke-linecap:butt;stroke-linejoin:miter;stroke-miterlimit:4;stroke-dasharray:none;stroke-dashoffset:0;stroke-opacity:1;stop-color:#000000;stop-opacity:1" />
    <path
       style="font-variation-settings:normal;opacity:1;vector-effect:none;fill:none;fill-opacity:1;fill-rule:evenodd;stroke:#0055d4;stroke-width:5.29167;stroke-linecap:butt;stroke-linejoin:miter;stroke-miterlimit:4;stroke-dasharray:none;stroke-dashoffset:0;stroke-opacity:1;stop-color:#000000;stop-opacity:1"
       id="circle890"
       inkscape:export-xdpi="12.440806"
       inkscape:export-ydpi="12.440806"
       sodipodi:type="arc"
       sodipodi:cx="2454.9624"
       sodipodi:cy="2.0134726"
       sodipodi:rx="89.958328"
       sodipodi:ry="89.958328"
       sodipodi:start="0.19809087"
       sodipodi:end="2.9635126"
       sodipodi:open="true"
       sodipodi:arc-type="arc"
       d="m 2543.1615,19.717082 a 89.958328,89.958328 0 0 1 -89.0992,72.250216 89.958328,89.958328 0 0 1 -87.6356,-74.018579" />
    <path
       d="M 2543.1615,15.690084 A 89.958328,89.958328 0 0 1 2454.0623,87.9403 89.958328,89.958328 0 0 1 2366.4267,13.921721"
       sodipodi:arc-type="arc"
       sodipodi:open="true"
       sodipodi:end="2.9635126"
       sodipodi:start="0.19809087"
       sodipodi:ry="89.958328"
       sodipodi:rx="89.958328"
       sodipodi:cy="-2.013526"
       sodipodi:cx="2454.9624"
       sodipodi:type="arc"
       inkscape:export-ydpi="12.440806"
       inkscape:export-xdpi="12.440806"
       id="path893"
       style="font-variation-settings:normal;opacity:1;vector-effect:none;fill:none;fill-opacity:1;fill-rule:evenodd;stroke:#0055d4;stroke-width:5.29167;stroke-linecap:butt;stroke-linejoin:miter;stroke-miterlimit:4;stroke-dasharray:none;stroke-dashoffset:0;stroke-opacity:1;stop-color:#000000;stop-opacity:1"
       transform="scale(1,-1)" />
    <circle
       inkscape:export-ydpi="12.440806"
       inkscape:export-xdpi="12.440806"
       style="font-variation-settings:normal;opacity:1;vector-effect:none;fill:#7ecefd;fill-opacity:1;fill-rule:evenodd;stroke-width:0.264583;stroke-linecap:butt;stroke-linejoin:miter;stroke-miterlimit:4;stroke-dasharray:none;stroke-dashoffset:0;stroke-opacity:1;stop-color:#000000;stop-opacity:1"
       id="circle901"
       cx="2548.312"
       cy="2.0134726"
       r="8.1173601" />
    <circle
       inkscape:export-ydpi="12.440806"
       inkscape:export-xdpi="12.440806"
       r="8.1173601"
       cy="2.0134726"
       cx="2366.686"
       id="circle903"
       style="font-variation-settings:normal;opacity:1;vector-effect:none;fill:#7ecefd;fill-opacity:1;fill-rule:evenodd;stroke-width:0.264583;stroke-linecap:butt;stroke-linejoin:miter;stroke-miterlimit:4;stroke-dasharray:none;stroke-dashoffset:0;stroke-opacity:1;stop-color:#000000;stop-opacity:1" />
    <path
       d="M 2543.1615,15.690084 A 89.958328,89.958328 0 0 1 2454.0623,87.9403 89.958328,89.958328 0 0 1 2366.4267,13.921721"
       sodipodi:arc-type="arc"
       sodipodi:open="true"
       sodipodi:end="2.9635126"
       sodipodi:start="0.19809087"
       sodipodi:ry="89.958328"
       sodipodi:rx="89.958328"
       sodipodi:cy="-2.013526"
       sodipodi:cx="2454.9624"
       sodipodi:type="arc"
       inkscape:export-ydpi="12.440806"
       inkscape:export-xdpi="12.440806"
       id="path908"
       style="font-variation-settings:normal;opacity:1;vector-effect:none;fill:none;fill-opacity:1;fill-rule:evenodd;stroke:#0055d4;stroke-width:5.29167;stroke-linecap:butt;stroke-linejoin:miter;stroke-miterlimit:4;stroke-dasharray:none;stroke-dashoffset:0;stroke-opacity:1;stop-color:#000000;stop-opacity:1"
       transform="scale(1,-1)" />
    <circle
       inkscape:export-ydpi="12.440806"
       inkscape:export-xdpi="12.440806"
       r="43.630817"
       cy="2.0134726"
       cx="2479.3145"
       id="circle910"
       style="font-variation-settings:normal;opacity:1;vector-effect:none;fill:#0055d4;fill-opacity:1;fill-rule:evenodd;stroke-width:0.264583;stroke-linecap:butt;stroke-linejoin:miter;stroke-miterlimit:4;stroke-dasharray:none;stroke-dashoffset:0;stroke-opacity:1;stop-color:#000000;stop-opacity:1" />
    <circle
       inkscape:export-ydpi="12.440806"
       inkscape:export-xdpi="12.440806"
       transform="rotate(-45)"
       r="32.284763"
       cy="2005.4475"
       cx="1987.7844"
       id="circle891"
       style="font-variation-settings:normal;opacity:1;vector-effect:none;fill:#7ecefd;fill-opacity:1;fill-rule:evenodd;stroke-width:0.401052;stroke-linecap:butt;stroke-linejoin:miter;stroke-miterlimit:4;stroke-dasharray:none;stroke-dashoffset:0;stroke-opacity:1;stop-color:#000000;stop-opacity:1" />
    <circle
       inkscape:export-ydpi="12.440806"
       inkscape:export-xdpi="12.440806"
       style="font-variation-settings:normal;opacity:1;vector-effect:none;fill:#7ecefd;fill-opacity:1;fill-rule:evenodd;stroke-width:0.264583;stroke-linecap:butt;stroke-linejoin:miter;stroke-miterlimit:4;stroke-dasharray:none;stroke-dashoffset:0;stroke-opacity:1;stop-color:#000000;stop-opacity:1"
       id="circle904"
       cx="2735.4282"
       cy="11.718816"
       r="8.1173601" />
    <path
       d="M 2801.6766,75.500797 A 89.958328,89.958328 0 0 1 2736.3901,9.9299672"
       sodipodi:arc-type="arc"
       sodipodi:open="true"
       sodipodi:end="2.898553"
       sodipodi:start="1.8181803"
       sodipodi:ry="89.958328"
       sodipodi:rx="89.958328"
       sodipodi:cy="-11.718869"
       sodipodi:cx="2823.7046"
       sodipodi:type="arc"
       inkscape:export-ydpi="12.440806"
       inkscape:export-xdpi="12.440806"
       id="path910"
       style="font-variation-settings:normal;opacity:1;vector-effect:none;fill:none;fill-opacity:1;fill-rule:evenodd;stroke:#0055d4;stroke-width:16.2348;stroke-linecap:round;stroke-linejoin:round;stroke-miterlimit:4;stroke-dasharray:none;stroke-dashoffset:0;stroke-opacity:1;stop-color:#000000;stop-opacity:1"
       transform="scale(1,-1)" />
    <circle
       inkscape:export-ydpi="12.440806"
       inkscape:export-xdpi="12.440806"
       style="font-variation-settings:normal;opacity:1;vector-effect:none;fill:#7ecefd;fill-opacity:1;fill-rule:evenodd;stroke-width:0.264583;stroke-linecap:butt;stroke-linejoin:miter;stroke-miterlimit:4;stroke-dasharray:none;stroke-dashoffset:0;stroke-opacity:1;stop-color:#000000;stop-opacity:1"
       id="circle916"
       cx="2823.5312"
       cy="-78.105606"
       r="8.1173601" />
    <circle
       inkscape:export-ydpi="12.440806"
       inkscape:export-xdpi="12.440806"
       r="8.1173601"
       cy="101.49734"
       cx="2823.5312"
       id="circle918"
       style="font-variation-settings:normal;opacity:1;vector-effect:none;fill:#7ecefd;fill-opacity:1;fill-rule:evenodd;stroke-width:0.264583;stroke-linecap:butt;stroke-linejoin:miter;stroke-miterlimit:4;stroke-dasharray:none;stroke-dashoffset:0;stroke-opacity:1;stop-color:#000000;stop-opacity:1" />
    <path
       transform="scale(1,-1)"
       style="font-variation-settings:normal;opacity:1;vector-effect:none;fill:none;fill-opacity:1;fill-rule:evenodd;stroke:#0055d4;stroke-width:16.2348;stroke-linecap:round;stroke-linejoin:round;stroke-miterlimit:4;stroke-dasharray:none;stroke-dashoffset:0;stroke-opacity:1;stop-color:#000000;stop-opacity:1"
       id="path920"
       inkscape:export-xdpi="12.440806"
       inkscape:export-ydpi="12.440806"
       sodipodi:type="arc"
       sodipodi:cx="2823.7046"
       sodipodi:cy="-11.718869"
       sodipodi:rx="89.958328"
       sodipodi:ry="89.958328"
       sodipodi:start="1.8181803"
       sodipodi:end="2.898553"
       sodipodi:open="true"
       sodipodi:arc-type="arc"
       d="M 2801.6766,75.500797 A 89.958328,89.958328 0 0 1 2736.3901,9.9299672" />
    <path
       d="M 2911.3549,8.5278625 A 89.958328,89.958328 0 0 1 2845.3697,75.591638"
       sodipodi:arc-type="arc"
       sodipodi:open="true"
       sodipodi:end="1.3275705"
       sodipodi:start="0.22701272"
       sodipodi:ry="89.958328"
       sodipodi:rx="89.958328"
       sodipodi:cy="-11.718869"
       sodipodi:cx="2823.7046"
       sodipodi:type="arc"
       inkscape:export-ydpi="12.440806"
       inkscape:export-xdpi="12.440806"
       id="path928"
       style="font-variation-settings:normal;opacity:1;vector-effect:none;fill:none;fill-opacity:1;fill-rule:evenodd;stroke:#0055d4;stroke-width:16.2348;stroke-linecap:round;stroke-linejoin:round;stroke-miterlimit:4;stroke-dasharray:none;stroke-dashoffset:0;stroke-opacity:1;stop-color:#000000;stop-opacity:1"
       transform="scale(1,-1)" />
    <path
       transform="scale(1,-1)"
       style="font-variation-settings:normal;opacity:1;vector-effect:none;fill:none;fill-opacity:1;fill-rule:evenodd;stroke:#0055d4;stroke-width:16.2348;stroke-linecap:round;stroke-linejoin:round;stroke-miterlimit:4;stroke-dasharray:none;stroke-dashoffset:0;stroke-opacity:1;stop-color:#000000;stop-opacity:1"
       id="path930"
       inkscape:export-xdpi="12.440806"
       inkscape:export-ydpi="12.440806"
       sodipodi:type="arc"
       sodipodi:cx="2823.7046"
       sodipodi:cy="-11.718869"
       sodipodi:rx="89.958328"
       sodipodi:ry="89.958328"
       sodipodi:start="4.9448253"
       sodipodi:end="6.0453942"
       sodipodi:open="true"
       sodipodi:arc-type="arc"
       d="m 2844.4264,-99.258045 a 89.958328,89.958328 0 0 1 66.7052,66.34891" />
    <path
       d="m 2736.3941,-33.383998 a 89.958328,89.958328 0 0 1 65.6151,-65.637852"
       sodipodi:arc-type="arc"
       sodipodi:open="true"
       sodipodi:end="4.468816"
       sodipodi:start="3.3848189"
       sodipodi:ry="89.958328"
       sodipodi:rx="89.958328"
       sodipodi:cy="-11.718869"
       sodipodi:cx="2823.7046"
       sodipodi:type="arc"
       inkscape:export-ydpi="12.440806"
       inkscape:export-xdpi="12.440806"
       id="path932"
       style="font-variation-settings:normal;opacity:1;vector-effect:none;fill:none;fill-opacity:1;fill-rule:evenodd;stroke:#0055d4;stroke-width:16.2348;stroke-linecap:round;stroke-linejoin:round;stroke-miterlimit:4;stroke-dasharray:none;stroke-dashoffset:0;stroke-opacity:1;stop-color:#000000;stop-opacity:1"
       transform="scale(1,-1)" />
    <path
       inkscape:export-ydpi="12.440806"
       inkscape:export-xdpi="12.440806"
       sodipodi:nodetypes="csssc"
       d="m 2834.1605,-103.76108 c 0,5.870367 -4.7587,10.629251 -10.6291,10.629331 -5.8705,2e-5 -10.6294,-4.758884 -10.6294,-10.629331 0,-5.87044 4.7589,-10.62938 10.6294,-10.62934 5.8704,8e-5 10.6291,4.75898 10.6291,10.62934"
       style="font-variation-settings:normal;vector-effect:none;fill:#0055d4;fill-opacity:1;fill-rule:evenodd;stroke-width:0.531466;stroke-linecap:butt;stroke-linejoin:miter;stroke-miterlimit:4;stroke-dasharray:none;stroke-dashoffset:0;stroke-opacity:1;stop-color:#000000"
       id="path936" />
    <path
       inkscape:export-ydpi="12.440806"
       inkscape:export-xdpi="12.440806"
       sodipodi:nodetypes="sssssss"
       d="m 2764.6756,-112.89897 h 28.2078 c 5.0625,0 9.138,4.0755 9.138,9.13791 0,5.062387 -4.0755,9.137877 -9.138,9.137877 h -28.2078 c -6.3543,0 -9.138,-4.07549 -9.138,-9.137877 0,-5.06241 4.0755,-9.13791 9.138,-9.13791 z"
       style="font-variation-settings:normal;vector-effect:none;fill:#0055d4;fill-opacity:1;fill-rule:evenodd;stroke-width:0.609192;stroke-linecap:butt;stroke-linejoin:miter;stroke-miterlimit:4;stroke-dasharray:none;stroke-dashoffset:0;stroke-opacity:1;stop-color:#000000"
       id="path938" />
    <circle
       inkscape:export-ydpi="12.440806"
       inkscape:export-xdpi="12.440806"
       transform="rotate(-45)"
       r="5.9255824"
       style="font-variation-settings:normal;opacity:1;vector-effect:none;fill:#7ecefd;fill-opacity:1;fill-rule:evenodd;stroke-width:0.193142;stroke-linecap:butt;stroke-linejoin:miter;stroke-miterlimit:4;stroke-dasharray:none;stroke-dashoffset:0;stroke-opacity:1;stop-color:#000000;stop-opacity:1"
       id="circle942"
       cx="2054.0261"
       cy="2005.4294" />
    <circle
       inkscape:export-ydpi="12.440806"
       inkscape:export-xdpi="12.440806"
       transform="rotate(-45)"
       r="5.9255824"
       cy="1986.4686"
       cx="1863.1274"
       id="circle944"
       style="font-variation-settings:normal;opacity:1;vector-effect:none;fill:#7ecefd;fill-opacity:1;fill-rule:evenodd;stroke-width:0.193142;stroke-linecap:butt;stroke-linejoin:miter;stroke-miterlimit:4;stroke-dasharray:none;stroke-dashoffset:0;stroke-opacity:1;stop-color:#000000;stop-opacity:1" />
    <circle
       inkscape:export-ydpi="12.440806"
       inkscape:export-xdpi="12.440806"
       transform="rotate(-45)"
       r="5.9255824"
       cy="1876.7738"
       cx="1972.8223"
       id="circle950"
       style="font-variation-settings:normal;opacity:1;vector-effect:none;fill:#7ecefd;fill-opacity:1;fill-rule:evenodd;stroke-width:0.193142;stroke-linecap:butt;stroke-linejoin:miter;stroke-miterlimit:4;stroke-dasharray:none;stroke-dashoffset:0;stroke-opacity:1;stop-color:#000000;stop-opacity:1" />
    <circle
       inkscape:export-ydpi="12.440806"
       inkscape:export-xdpi="12.440806"
       transform="rotate(-45)"
       r="5.9255824"
       style="font-variation-settings:normal;opacity:1;vector-effect:none;fill:#7ecefd;fill-opacity:1;fill-rule:evenodd;stroke-width:0.193142;stroke-linecap:butt;stroke-linejoin:miter;stroke-miterlimit:4;stroke-dasharray:none;stroke-dashoffset:0;stroke-opacity:1;stop-color:#000000;stop-opacity:1"
       id="circle952"
       cx="1988.4587"
       cy="2070.9666" />
    <path
       inkscape:export-ydpi="12.440806"
       inkscape:export-xdpi="12.440806"
       id="path962"
       style="font-variation-settings:normal;vector-effect:none;fill:#0055d4;fill-opacity:1;fill-rule:evenodd;stroke-width:0.531466;stroke-linecap:butt;stroke-linejoin:miter;stroke-miterlimit:4;stroke-dasharray:none;stroke-dashoffset:0;stroke-opacity:1;stop-color:#000000"
       d="m 2834.1605,125.93203 c 0,5.87037 -4.7587,10.62926 -10.6291,10.62934 -5.8705,2e-5 -10.6294,-4.75889 -10.6294,-10.62934 0,-5.87044 4.7589,-10.62938 10.6294,-10.62934 5.8704,8e-5 10.6291,4.75898 10.6291,10.62934"
       sodipodi:nodetypes="csssc" />
    <path
       inkscape:export-ydpi="12.440806"
       inkscape:export-xdpi="12.440806"
       id="path968"
       style="font-variation-settings:normal;vector-effect:none;fill:#0055d4;fill-opacity:1;fill-rule:evenodd;stroke-width:0.609192;stroke-linecap:butt;stroke-linejoin:miter;stroke-miterlimit:4;stroke-dasharray:none;stroke-dashoffset:0;stroke-opacity:1;stop-color:#000000"
       d="m 2883.6293,2.5809225 h 51.0835 c 5.0625,0 9.138,4.0755 9.138,9.1379095 0,5.062387 -4.0755,9.137877 -9.138,9.137877 h -51.0835 c -6.3543,0 -9.138,-4.07549 -9.138,-9.137877 0,-5.0624095 4.0755,-9.1379095 9.138,-9.1379095 z"
       sodipodi:nodetypes="sssssss" />
    <path
       id="path912"
       style="font-variation-settings:normal;vector-effect:none;fill:#0055d4;fill-opacity:1;fill-rule:evenodd;stroke-width:0.609192;stroke-linecap:butt;stroke-linejoin:miter;stroke-miterlimit:4;stroke-dasharray:none;stroke-dashoffset:0;stroke-opacity:1;stop-color:#000000"
       d="m 2764.6756,118.28558 h 28.2078 c 5.0625,0 9.138,4.0755 9.138,9.13791 0,5.06239 -4.0755,9.13788 -9.138,9.13788 h -28.2078 c -6.3543,0 -9.138,-4.07549 -9.138,-9.13788 0,-5.06241 4.0755,-9.13791 9.138,-9.13791 z"
       sodipodi:nodetypes="sssssss"
       inkscape:export-xdpi="12.440806"
       inkscape:export-ydpi="12.440806" />
    <path
       inkscape:export-ydpi="13.935419"
       inkscape:export-xdpi="13.935419"
       d="m 2347.8272,133.23342 a 91.134756,91.134728 0 0 1 -91.1347,91.13472 91.134756,91.134728 0 0 1 -91.1347,-91.13472 91.134756,91.134728 0 0 1 91.1347,-91.134737 91.134756,91.134728 0 0 1 91.1347,91.134737 z"
       style="font-variation-settings:normal;opacity:1;vector-effect:none;fill:#0055d4;fill-opacity:1;fill-rule:evenodd;stroke-width:0.391122;stroke-linecap:butt;stroke-linejoin:miter;stroke-miterlimit:4;stroke-dasharray:none;stroke-dashoffset:0;stroke-opacity:1;stop-color:#000000;stop-opacity:1"
       id="path914" />
  </g>
</svg>
